%
M48
M72
T01C0.0150
T02C0.0200
T03C0.0400
T04C0.0591
T05C0.0800
T06C0.1300
%
T01
X7375Y4850
X7275Y6150
X8125Y6150
X6975Y7350
X6875Y8350
X7375Y10500
X8375Y11850
X9525Y12850
X9975Y12400
X10075Y13350
X9825Y13625
X7900Y13475
X7875Y13950
X7825Y14550
X6825Y14050
X6975Y12650
X6375Y12350
X9375Y15350
X10375Y16350
X11175Y15350
X11725Y16100
X12725Y14900
X13425Y13800
X13875Y13350
X13475Y12900
X14325Y12900
X14325Y13800
X15375Y13450
X15825Y12651
X16275Y12550
X16475Y13300
X17725Y12400
X16825Y11550
X16125Y10300
X16075Y9050
X16075Y8400
X14630Y8700
X13880Y9950
X12670Y9950
X11625Y8750
X11075Y9350
X10925Y8200
X10575Y7650
X10525Y7100
X10575Y6350
X11475Y6100
X11925Y7423
X12775Y7750
X13075Y6355
X13975Y6100
X14388Y6363
X14675Y6650
X14930Y6350
X14925Y5400
X15525Y5400
X14475Y4450
X13875Y4800
X13420Y5205
X13325Y3950
X12375Y3950
X10875Y4595
X9975Y5150
X10125Y8100
X11625Y11550
X12425Y12250
X11875Y13450
X12225Y13605
X14130Y11400
X14425Y11150
X15125Y11650
X18525Y10550
X18125Y8850
X19475Y8400
X17375Y4850
X15225Y4000
X21375Y12850
X18375Y15350
X17375Y16350
X16575Y15350
X15975Y16100
X15025Y14900
X19275Y18750
X15225Y24200
X14475Y24650
X13875Y25000
X13420Y25405
X13975Y26300
X14388Y26563
X14675Y26850
X14930Y26550
X14925Y25600
X15525Y25600
X17375Y25050
X13325Y24150
X12375Y24150
X10875Y24795
X9975Y25350
X10575Y26550
X10525Y27300
X10575Y27850
X10125Y28300
X10925Y28400
X11625Y28950
X11075Y29550
X12670Y30150
X13880Y30150
X14425Y31350
X14130Y31600
X15125Y31850
X15825Y32851
X16275Y32750
X16475Y33500
X15375Y33650
X14325Y34000
X13875Y33550
X13475Y33100
X14325Y33100
X13425Y34000
X12225Y33805
X11875Y33650
X12425Y32450
X11625Y31750
X9975Y32600
X9525Y33050
X10075Y33550
X9825Y33825
X7900Y33675
X7875Y34150
X7825Y34750
X6825Y34250
X6975Y32850
X6375Y32550
X8375Y32050
X7375Y30700
X6875Y28550
X6975Y27550
X7275Y26350
X8125Y26350
X7375Y25050
X11475Y26300
X11925Y27623
X12775Y27950
X13075Y26555
X14630Y28900
X16075Y28600
X16075Y29250
X16125Y30500
X16825Y31750
X17725Y32600
X18525Y30750
X18125Y29050
X19475Y28600
X21375Y33050
X18375Y35550
X17375Y36550
X16575Y35550
X15975Y36300
X15025Y35100
X12725Y35100
X11725Y36300
X11175Y35550
X10375Y36550
X9375Y35550
X7175Y38550
X19275Y38950
X27575Y32550
X28175Y32850
X29100Y33675
X29075Y34150
X29025Y34750
X28025Y34250
X29575Y32050
X30725Y33050
X31175Y32600
X31275Y33550
X31025Y33825
X33075Y33650
X33425Y33805
X34625Y34000
X35075Y33550
X34675Y33100
X35525Y33100
X36575Y33650
X35525Y34000
X36225Y35100
X37775Y35550
X37175Y36300
X38575Y36550
X39575Y35550
X37675Y33500
X37475Y32750
X37025Y32851
X36325Y31850
X35625Y31350
X35330Y31600
X35080Y30150
X33870Y30150
X32825Y28950
X32275Y29550
X32125Y28400
X31775Y27850
X31725Y27300
X31775Y26550
X32675Y26300
X31175Y25350
X32075Y24795
X33575Y24150
X34525Y24150
X35075Y25000
X34620Y25405
X35175Y26300
X35588Y26563
X35875Y26850
X36130Y26550
X36125Y25600
X36725Y25600
X35675Y24650
X36425Y24200
X38575Y25050
X37275Y28600
X37275Y29250
X37325Y30500
X38025Y31750
X38925Y32600
X39725Y30750
X39325Y29050
X40675Y28600
X35830Y28900
X33975Y27950
X33125Y27623
X34275Y26555
X31325Y28300
X29325Y26350
X28475Y26350
X28175Y27550
X28075Y28550
X28575Y30700
X32825Y31750
X33625Y32450
X33925Y35100
X32925Y36300
X32375Y35550
X31575Y36550
X30575Y35550
X28375Y38550
X40475Y38950
X42575Y33050
X28575Y25050
X28375Y18350
X31575Y16350
X32375Y15350
X32925Y16100
X33925Y14900
X34625Y13800
X35075Y13350
X34675Y12900
X35525Y12900
X36575Y13450
X35525Y13800
X36225Y14900
X37775Y15350
X37175Y16100
X38575Y16350
X39575Y15350
X37675Y13300
X37475Y12550
X37025Y12651
X36325Y11650
X35625Y11150
X35330Y11400
X35080Y9950
X33870Y9950
X32825Y8750
X32275Y9350
X32125Y8200
X31775Y7650
X31725Y7100
X31775Y6350
X32675Y6100
X31175Y5150
X32075Y4595
X33575Y3950
X34525Y3950
X35075Y4800
X34620Y5205
X35175Y6100
X35588Y6363
X35875Y6650
X36130Y6350
X36125Y5400
X36725Y5400
X35675Y4450
X36425Y4000
X38575Y4850
X37275Y8400
X37275Y9050
X37325Y10300
X38025Y11550
X38925Y12400
X39725Y10550
X39325Y8850
X40675Y8400
X42575Y12850
X35830Y8700
X33975Y7750
X33125Y7423
X34275Y6355
X31325Y8100
X29325Y6150
X28475Y6150
X28175Y7350
X28075Y8350
X28575Y10500
X29575Y11850
X30725Y12850
X31175Y12400
X31275Y13350
X31025Y13625
X33075Y13450
X33425Y13605
X33625Y12250
X32825Y11550
X29100Y13475
X29075Y13950
X29025Y14550
X28025Y14050
X28175Y12650
X27575Y12350
X30575Y15350
X40475Y18750
X28575Y4850
X7175Y18350
T02
X12875Y9350
X12875Y8350
X13875Y8350
X13875Y9350
X14875Y9350
X14875Y8350
X34075Y8350
X34075Y9350
X35075Y9350
X36075Y9350
X36075Y8350
X35075Y8350
X35075Y28550
X36075Y28550
X36075Y29550
X35075Y29550
X34075Y29550
X34075Y28550
X14875Y28550
X14875Y29550
X13875Y29550
X13875Y28550
X12875Y28550
X12875Y29550
T03
X12875Y23550
X11875Y23550
X13875Y23550
X14875Y23550
X15875Y23550
X25575Y26550
X25575Y27550
X25575Y28550
X25575Y29550
X25575Y30550
X25575Y31550
X33075Y23550
X34075Y23550
X35075Y23550
X36075Y23550
X37075Y23550
X25575Y11350
X25575Y10350
X25575Y9350
X25575Y8350
X25575Y7350
X25575Y6350
X33075Y3350
X34075Y3350
X35075Y3350
X36075Y3350
X37075Y3350
X15875Y3350
X14875Y3350
X13875Y3350
X12875Y3350
X11875Y3350
X4375Y6350
X4375Y7350
X4375Y8350
X4375Y9350
X4375Y10350
X4375Y11350
X4375Y26550
X4375Y27550
X4375Y28550
X4375Y29550
X4375Y30550
X4375Y31550
T04
X10922Y40550
X12891Y40550
X14859Y40550
X16828Y40550
X21375Y29034
X21375Y27066
X16828Y20350
X14859Y20350
X12891Y20350
X10922Y20350
X21375Y8834
X21375Y6866
X32122Y20350
X34091Y20350
X36059Y20350
X38028Y20350
X42575Y27066
X42575Y29034
X38028Y40550
X36059Y40550
X34091Y40550
X32122Y40550
X42575Y8834
X42575Y6866
T05
X41775Y15850
X43575Y15850
X22375Y15850
X20575Y15850
X20575Y36050
X22375Y36050
X41775Y36050
X43575Y36050
T06
X4875Y3850
X22875Y3850
X26075Y3850
X44075Y3850
X44075Y21850
X44075Y24050
X26075Y24050
X26075Y21850
X22875Y21850
X22875Y24050
X4875Y24050
X4875Y21850
X4875Y42050
X22875Y42050
X26075Y42050
X44075Y42050
M30
