G75*
%MOIN*%
%OFA0B0*%
%FSLAX25Y25*%
%IPPOS*%
%LPD*%
%AMOC8*
5,1,8,0,0,1.08239X$1,22.5*
%
%ADD10R,2.00000X0.35500*%
%ADD11C,0.13800*%
%ADD12C,0.08800*%
%ADD13C,0.08200*%
%ADD14R,0.03300X0.05800*%
%ADD15C,0.00500*%
%ADD16C,0.04808*%
%ADD17C,0.09658*%
%ADD18C,0.04737*%
D10*
X0138750Y0123250D03*
X0350750Y0123250D03*
X0350750Y0325250D03*
X0138750Y0325250D03*
D11*
X0048750Y0038500D03*
X0228750Y0038500D03*
X0260750Y0038500D03*
X0440750Y0038500D03*
X0440750Y0218500D03*
X0440750Y0240500D03*
X0260750Y0240500D03*
X0260750Y0218500D03*
X0228750Y0218500D03*
X0228750Y0240500D03*
X0048750Y0240500D03*
X0048750Y0218500D03*
X0048750Y0420500D03*
X0228750Y0420500D03*
X0260750Y0420500D03*
X0440750Y0420500D03*
D12*
X0435750Y0360500D03*
X0417750Y0360500D03*
X0223750Y0360500D03*
X0205750Y0360500D03*
X0205750Y0158500D03*
X0223750Y0158500D03*
X0417750Y0158500D03*
X0435750Y0158500D03*
D13*
X0370750Y0235500D03*
X0360750Y0235500D03*
X0350750Y0235500D03*
X0340750Y0235500D03*
X0330750Y0235500D03*
X0255750Y0252500D03*
X0255750Y0262500D03*
X0255750Y0272500D03*
X0255750Y0282500D03*
X0255750Y0292500D03*
X0255750Y0302500D03*
X0158750Y0235500D03*
X0148750Y0235500D03*
X0138750Y0235500D03*
X0128750Y0235500D03*
X0118750Y0235500D03*
X0043750Y0252500D03*
X0043750Y0262500D03*
X0043750Y0272500D03*
X0043750Y0282500D03*
X0043750Y0292500D03*
X0043750Y0302500D03*
X0043750Y0100500D03*
X0043750Y0090500D03*
X0043750Y0080500D03*
X0043750Y0070500D03*
X0043750Y0060500D03*
X0043750Y0050500D03*
X0118750Y0033500D03*
X0128750Y0033500D03*
X0138750Y0033500D03*
X0148750Y0033500D03*
X0158750Y0033500D03*
X0255750Y0050500D03*
X0255750Y0060500D03*
X0255750Y0070500D03*
X0255750Y0080500D03*
X0255750Y0090500D03*
X0255750Y0100500D03*
X0330750Y0033500D03*
X0340750Y0033500D03*
X0350750Y0033500D03*
X0360750Y0033500D03*
X0370750Y0033500D03*
D14*
X0376750Y0073500D03*
X0380750Y0073500D03*
X0384750Y0073500D03*
X0322350Y0083500D03*
X0319150Y0083500D03*
X0297750Y0148500D03*
X0293750Y0148500D03*
X0293750Y0158500D03*
X0297750Y0158500D03*
X0297750Y0168500D03*
X0293750Y0168500D03*
X0293750Y0178500D03*
X0297750Y0178500D03*
X0376750Y0275500D03*
X0380750Y0275500D03*
X0384750Y0275500D03*
X0322350Y0285500D03*
X0319150Y0285500D03*
X0297750Y0350500D03*
X0293750Y0350500D03*
X0293750Y0360500D03*
X0297750Y0360500D03*
X0297750Y0370500D03*
X0293750Y0370500D03*
X0293750Y0380500D03*
X0297750Y0380500D03*
X0172750Y0275500D03*
X0168750Y0275500D03*
X0164750Y0275500D03*
X0110350Y0285500D03*
X0107150Y0285500D03*
X0085750Y0350500D03*
X0081750Y0350500D03*
X0081750Y0360500D03*
X0085750Y0360500D03*
X0085750Y0370500D03*
X0081750Y0370500D03*
X0081750Y0380500D03*
X0085750Y0380500D03*
X0085750Y0178500D03*
X0081750Y0178500D03*
X0081750Y0168500D03*
X0085750Y0168500D03*
X0085750Y0158500D03*
X0081750Y0158500D03*
X0081750Y0148500D03*
X0085750Y0148500D03*
X0107150Y0083500D03*
X0110350Y0083500D03*
X0164750Y0073500D03*
X0168750Y0073500D03*
X0172750Y0073500D03*
D15*
X0171500Y0073366D02*
X0170000Y0073366D01*
X0170000Y0073000D02*
X0171500Y0073000D01*
X0171500Y0074000D01*
X0170000Y0074000D01*
X0170000Y0073000D01*
X0170000Y0073865D02*
X0171500Y0073865D01*
X0167500Y0073865D02*
X0166000Y0073865D01*
X0166000Y0074000D02*
X0166000Y0073000D01*
X0167500Y0073000D01*
X0167500Y0074000D01*
X0166000Y0074000D01*
X0166000Y0073366D02*
X0167500Y0073366D01*
X0084500Y0148000D02*
X0084500Y0149000D01*
X0083000Y0149000D01*
X0083000Y0148000D01*
X0084500Y0148000D01*
X0084500Y0148143D02*
X0083000Y0148143D01*
X0083000Y0148641D02*
X0084500Y0148641D01*
X0084500Y0158000D02*
X0084500Y0159000D01*
X0083000Y0159000D01*
X0083000Y0158000D01*
X0084500Y0158000D01*
X0084500Y0158113D02*
X0083000Y0158113D01*
X0083000Y0158611D02*
X0084500Y0158611D01*
X0084500Y0168000D02*
X0084500Y0169000D01*
X0083000Y0169000D01*
X0083000Y0168000D01*
X0084500Y0168000D01*
X0084500Y0168083D02*
X0083000Y0168083D01*
X0083000Y0168582D02*
X0084500Y0168582D01*
X0084500Y0178000D02*
X0084500Y0179000D01*
X0083000Y0179000D01*
X0083000Y0178000D01*
X0084500Y0178000D01*
X0084500Y0178053D02*
X0083000Y0178053D01*
X0083000Y0178552D02*
X0084500Y0178552D01*
X0166000Y0275000D02*
X0167500Y0275000D01*
X0167500Y0276000D01*
X0166000Y0276000D01*
X0166000Y0275000D01*
X0166000Y0275263D02*
X0167500Y0275263D01*
X0167500Y0275762D02*
X0166000Y0275762D01*
X0170000Y0275762D02*
X0171500Y0275762D01*
X0171500Y0276000D02*
X0171500Y0275000D01*
X0170000Y0275000D01*
X0170000Y0276000D01*
X0171500Y0276000D01*
X0171500Y0275263D02*
X0170000Y0275263D01*
X0084500Y0350000D02*
X0084500Y0351000D01*
X0083000Y0351000D01*
X0083000Y0350000D01*
X0084500Y0350000D01*
X0084500Y0350040D02*
X0083000Y0350040D01*
X0083000Y0350538D02*
X0084500Y0350538D01*
X0084500Y0360000D02*
X0084500Y0361000D01*
X0083000Y0361000D01*
X0083000Y0360000D01*
X0084500Y0360000D01*
X0084500Y0360010D02*
X0083000Y0360010D01*
X0083000Y0360509D02*
X0084500Y0360509D01*
X0084500Y0370000D02*
X0084500Y0371000D01*
X0083000Y0371000D01*
X0083000Y0370000D01*
X0084500Y0370000D01*
X0084500Y0370479D02*
X0083000Y0370479D01*
X0083000Y0370977D02*
X0084500Y0370977D01*
X0084500Y0380000D02*
X0084500Y0381000D01*
X0083000Y0381000D01*
X0083000Y0380000D01*
X0084500Y0380000D01*
X0084500Y0380449D02*
X0083000Y0380449D01*
X0083000Y0380948D02*
X0084500Y0380948D01*
X0295000Y0380948D02*
X0296500Y0380948D01*
X0296500Y0381000D02*
X0296500Y0380000D01*
X0295000Y0380000D01*
X0295000Y0381000D01*
X0296500Y0381000D01*
X0296500Y0380449D02*
X0295000Y0380449D01*
X0295000Y0371000D02*
X0295000Y0370000D01*
X0296500Y0370000D01*
X0296500Y0371000D01*
X0295000Y0371000D01*
X0295000Y0370977D02*
X0296500Y0370977D01*
X0296500Y0370479D02*
X0295000Y0370479D01*
X0295000Y0361000D02*
X0295000Y0360000D01*
X0296500Y0360000D01*
X0296500Y0361000D01*
X0295000Y0361000D01*
X0295000Y0360509D02*
X0296500Y0360509D01*
X0296500Y0360010D02*
X0295000Y0360010D01*
X0295000Y0351000D02*
X0295000Y0350000D01*
X0296500Y0350000D01*
X0296500Y0351000D01*
X0295000Y0351000D01*
X0295000Y0350538D02*
X0296500Y0350538D01*
X0296500Y0350040D02*
X0295000Y0350040D01*
X0378000Y0276000D02*
X0378000Y0275000D01*
X0379500Y0275000D01*
X0379500Y0276000D01*
X0378000Y0276000D01*
X0378000Y0275762D02*
X0379500Y0275762D01*
X0379500Y0275263D02*
X0378000Y0275263D01*
X0382000Y0275263D02*
X0383500Y0275263D01*
X0383500Y0275000D02*
X0383500Y0276000D01*
X0382000Y0276000D01*
X0382000Y0275000D01*
X0383500Y0275000D01*
X0383500Y0275762D02*
X0382000Y0275762D01*
X0296500Y0179000D02*
X0296500Y0178000D01*
X0295000Y0178000D01*
X0295000Y0179000D01*
X0296500Y0179000D01*
X0296500Y0178552D02*
X0295000Y0178552D01*
X0295000Y0178053D02*
X0296500Y0178053D01*
X0296500Y0169000D02*
X0296500Y0168000D01*
X0295000Y0168000D01*
X0295000Y0169000D01*
X0296500Y0169000D01*
X0296500Y0168582D02*
X0295000Y0168582D01*
X0295000Y0168083D02*
X0296500Y0168083D01*
X0296500Y0159000D02*
X0296500Y0158000D01*
X0295000Y0158000D01*
X0295000Y0159000D01*
X0296500Y0159000D01*
X0296500Y0158611D02*
X0295000Y0158611D01*
X0295000Y0158113D02*
X0296500Y0158113D01*
X0296500Y0149000D02*
X0296500Y0148000D01*
X0295000Y0148000D01*
X0295000Y0149000D01*
X0296500Y0149000D01*
X0296500Y0148641D02*
X0295000Y0148641D01*
X0295000Y0148143D02*
X0296500Y0148143D01*
X0378000Y0074000D02*
X0378000Y0073000D01*
X0379500Y0073000D01*
X0379500Y0074000D01*
X0378000Y0074000D01*
X0378000Y0073865D02*
X0379500Y0073865D01*
X0379500Y0073366D02*
X0378000Y0073366D01*
X0382000Y0073366D02*
X0383500Y0073366D01*
X0383500Y0073000D02*
X0383500Y0074000D01*
X0382000Y0074000D01*
X0382000Y0073000D01*
X0383500Y0073000D01*
X0383500Y0073865D02*
X0382000Y0073865D01*
D16*
X0360750Y0083500D03*
X0350750Y0083500D03*
X0350750Y0093500D03*
X0360750Y0093500D03*
X0340750Y0093500D03*
X0340750Y0083500D03*
X0148750Y0083500D03*
X0148750Y0093500D03*
X0138750Y0093500D03*
X0138750Y0083500D03*
X0128750Y0083500D03*
X0128750Y0093500D03*
X0128750Y0285500D03*
X0128750Y0295500D03*
X0138750Y0295500D03*
X0138750Y0285500D03*
X0148750Y0285500D03*
X0148750Y0295500D03*
X0340750Y0295500D03*
X0340750Y0285500D03*
X0350750Y0285500D03*
X0360750Y0285500D03*
X0360750Y0295500D03*
X0350750Y0295500D03*
D17*
X0425750Y0290343D03*
X0425750Y0270657D03*
X0380278Y0203500D03*
X0360593Y0203500D03*
X0340907Y0203500D03*
X0321222Y0203500D03*
X0213750Y0270657D03*
X0213750Y0290343D03*
X0168278Y0203500D03*
X0148593Y0203500D03*
X0128907Y0203500D03*
X0109222Y0203500D03*
X0213750Y0088343D03*
X0213750Y0068657D03*
X0425750Y0068657D03*
X0425750Y0088343D03*
X0380278Y0405500D03*
X0360593Y0405500D03*
X0340907Y0405500D03*
X0321222Y0405500D03*
X0168278Y0405500D03*
X0148593Y0405500D03*
X0128907Y0405500D03*
X0109222Y0405500D03*
D18*
X0218750Y0425500D03*
X0430750Y0425500D03*
X0270750Y0235500D03*
X0218750Y0223500D03*
X0058750Y0235500D03*
X0058750Y0033500D03*
X0270750Y0033500D03*
X0430750Y0223500D03*
M02*
