G75*
%MOIN*%
%OFA0B0*%
%FSLAX25Y25*%
%IPPOS*%
%LPD*%
%AMOC8*
5,1,8,0,0,1.08239X$1,22.5*
%
%ADD10R,0.04737X0.05131*%
%ADD11C,0.13800*%
%ADD12R,0.07887X0.11430*%
%ADD13R,0.05131X0.04737*%
%ADD14R,0.06587X0.05800*%
%ADD15R,0.11824X0.10249*%
%ADD16C,0.08800*%
%ADD17R,0.12611X0.06312*%
%ADD18C,0.01981*%
%ADD19R,0.13300X0.13300*%
%ADD20C,0.08200*%
%ADD21R,0.05524X0.08674*%
%ADD22R,0.03162X0.06115*%
%ADD23R,0.03300X0.05800*%
%ADD24C,0.00500*%
%ADD25C,0.01990*%
%ADD26C,0.02572*%
%ADD27R,0.06040X0.13760*%
%ADD28R,0.05800X0.03000*%
%ADD29R,0.03000X0.05800*%
%ADD30R,0.06800X0.03800*%
%ADD31R,0.04737X0.18910*%
%ADD32R,0.07099X0.14186*%
%ADD33C,0.09658*%
%ADD34R,0.05524X0.02965*%
%ADD35C,0.04737*%
%ADD36C,0.05000*%
%ADD37C,0.06706*%
D10*
X0108750Y0075154D03*
X0108750Y0081846D03*
X0128750Y0111654D03*
X0128750Y0118346D03*
X0101250Y0140154D03*
X0095750Y0140154D03*
X0095750Y0146846D03*
X0101250Y0146846D03*
X0166250Y0086846D03*
X0166250Y0080154D03*
X0176250Y0080154D03*
X0176250Y0086846D03*
X0173750Y0066846D03*
X0173750Y0060154D03*
X0163750Y0060154D03*
X0163750Y0066846D03*
X0218750Y0110154D03*
X0218750Y0116846D03*
X0183750Y0130154D03*
X0183750Y0136846D03*
X0176250Y0136846D03*
X0176250Y0130154D03*
X0307750Y0140154D03*
X0313250Y0140154D03*
X0313250Y0146846D03*
X0307750Y0146846D03*
X0340750Y0118346D03*
X0340750Y0111654D03*
X0320750Y0081846D03*
X0320750Y0075154D03*
X0375750Y0066846D03*
X0375750Y0060154D03*
X0385750Y0060154D03*
X0385750Y0066846D03*
X0388250Y0080154D03*
X0388250Y0086846D03*
X0378250Y0086846D03*
X0378250Y0080154D03*
X0430750Y0110154D03*
X0430750Y0116846D03*
X0395750Y0130154D03*
X0395750Y0136846D03*
X0388250Y0136846D03*
X0388250Y0130154D03*
X0385750Y0262154D03*
X0385750Y0268846D03*
X0375750Y0268846D03*
X0375750Y0262154D03*
X0378250Y0282154D03*
X0378250Y0288846D03*
X0388250Y0288846D03*
X0388250Y0282154D03*
X0430750Y0312154D03*
X0430750Y0318846D03*
X0395750Y0332154D03*
X0395750Y0338846D03*
X0388250Y0338846D03*
X0388250Y0332154D03*
X0340750Y0320346D03*
X0340750Y0313654D03*
X0313250Y0342154D03*
X0307750Y0342154D03*
X0307750Y0348846D03*
X0313250Y0348846D03*
X0320750Y0283846D03*
X0320750Y0277154D03*
X0218750Y0312154D03*
X0218750Y0318846D03*
X0183750Y0332154D03*
X0183750Y0338846D03*
X0176250Y0338846D03*
X0176250Y0332154D03*
X0128750Y0320346D03*
X0128750Y0313654D03*
X0101250Y0342154D03*
X0095750Y0342154D03*
X0095750Y0348846D03*
X0101250Y0348846D03*
X0166250Y0288846D03*
X0166250Y0282154D03*
X0176250Y0282154D03*
X0176250Y0288846D03*
X0173750Y0268846D03*
X0173750Y0262154D03*
X0163750Y0262154D03*
X0163750Y0268846D03*
X0108750Y0277154D03*
X0108750Y0283846D03*
D11*
X0048750Y0038500D03*
X0228750Y0038500D03*
X0260750Y0038500D03*
X0440750Y0038500D03*
X0440750Y0218500D03*
X0440750Y0240500D03*
X0260750Y0240500D03*
X0260750Y0218500D03*
X0228750Y0218500D03*
X0228750Y0240500D03*
X0048750Y0240500D03*
X0048750Y0218500D03*
X0048750Y0420500D03*
X0228750Y0420500D03*
X0260750Y0420500D03*
X0440750Y0420500D03*
D12*
X0379411Y0365500D03*
X0362089Y0365500D03*
X0339411Y0365500D03*
X0322089Y0365500D03*
X0167411Y0365500D03*
X0150089Y0365500D03*
X0127411Y0365500D03*
X0110089Y0365500D03*
X0110089Y0163500D03*
X0127411Y0163500D03*
X0150089Y0163500D03*
X0167411Y0163500D03*
X0322089Y0163500D03*
X0339411Y0163500D03*
X0362089Y0163500D03*
X0379411Y0163500D03*
D13*
X0382904Y0153500D03*
X0389596Y0153500D03*
X0374096Y0121000D03*
X0367404Y0121000D03*
X0367404Y0113500D03*
X0374096Y0113500D03*
X0329096Y0111000D03*
X0322404Y0111000D03*
X0322404Y0118500D03*
X0329096Y0118500D03*
X0329096Y0126000D03*
X0322404Y0126000D03*
X0322404Y0133500D03*
X0329096Y0133500D03*
X0329096Y0153500D03*
X0322404Y0153500D03*
X0299096Y0148500D03*
X0292404Y0148500D03*
X0292404Y0158500D03*
X0299096Y0158500D03*
X0299096Y0168500D03*
X0292404Y0168500D03*
X0292404Y0178500D03*
X0299096Y0178500D03*
X0289096Y0103500D03*
X0282404Y0103500D03*
X0307404Y0093500D03*
X0314096Y0093500D03*
X0327404Y0068500D03*
X0334096Y0068500D03*
X0357404Y0058500D03*
X0364096Y0058500D03*
X0177596Y0153500D03*
X0170904Y0153500D03*
X0162096Y0121000D03*
X0155404Y0121000D03*
X0155404Y0113500D03*
X0162096Y0113500D03*
X0117096Y0111000D03*
X0110404Y0111000D03*
X0110404Y0118500D03*
X0117096Y0118500D03*
X0117096Y0126000D03*
X0110404Y0126000D03*
X0110404Y0133500D03*
X0117096Y0133500D03*
X0117096Y0153500D03*
X0110404Y0153500D03*
X0087096Y0148500D03*
X0080404Y0148500D03*
X0080404Y0158500D03*
X0087096Y0158500D03*
X0087096Y0168500D03*
X0080404Y0168500D03*
X0080404Y0178500D03*
X0087096Y0178500D03*
X0077096Y0103500D03*
X0070404Y0103500D03*
X0095404Y0093500D03*
X0102096Y0093500D03*
X0115404Y0068500D03*
X0122096Y0068500D03*
X0145404Y0058500D03*
X0152096Y0058500D03*
X0152096Y0260500D03*
X0145404Y0260500D03*
X0122096Y0270500D03*
X0115404Y0270500D03*
X0102096Y0295500D03*
X0095404Y0295500D03*
X0077096Y0305500D03*
X0070404Y0305500D03*
X0110404Y0313000D03*
X0117096Y0313000D03*
X0117096Y0320500D03*
X0110404Y0320500D03*
X0110404Y0328000D03*
X0117096Y0328000D03*
X0117096Y0335500D03*
X0110404Y0335500D03*
X0110404Y0355500D03*
X0117096Y0355500D03*
X0087096Y0350500D03*
X0080404Y0350500D03*
X0080404Y0360500D03*
X0087096Y0360500D03*
X0087096Y0370500D03*
X0080404Y0370500D03*
X0080404Y0380500D03*
X0087096Y0380500D03*
X0155404Y0323000D03*
X0162096Y0323000D03*
X0162096Y0315500D03*
X0155404Y0315500D03*
X0170904Y0355500D03*
X0177596Y0355500D03*
X0282404Y0305500D03*
X0289096Y0305500D03*
X0307404Y0295500D03*
X0314096Y0295500D03*
X0322404Y0313000D03*
X0329096Y0313000D03*
X0329096Y0320500D03*
X0322404Y0320500D03*
X0322404Y0328000D03*
X0329096Y0328000D03*
X0329096Y0335500D03*
X0322404Y0335500D03*
X0322404Y0355500D03*
X0329096Y0355500D03*
X0299096Y0350500D03*
X0292404Y0350500D03*
X0292404Y0360500D03*
X0299096Y0360500D03*
X0299096Y0370500D03*
X0292404Y0370500D03*
X0292404Y0380500D03*
X0299096Y0380500D03*
X0367404Y0323000D03*
X0374096Y0323000D03*
X0374096Y0315500D03*
X0367404Y0315500D03*
X0382904Y0355500D03*
X0389596Y0355500D03*
X0334096Y0270500D03*
X0327404Y0270500D03*
X0357404Y0260500D03*
X0364096Y0260500D03*
D14*
X0440750Y0307035D03*
X0440750Y0323965D03*
X0228750Y0323965D03*
X0228750Y0307035D03*
X0228750Y0121965D03*
X0228750Y0105035D03*
X0440750Y0105035D03*
X0440750Y0121965D03*
D15*
X0435750Y0136059D03*
X0411734Y0136059D03*
X0411734Y0180941D03*
X0435750Y0180941D03*
X0435750Y0338059D03*
X0411734Y0338059D03*
X0411734Y0382941D03*
X0435750Y0382941D03*
X0223750Y0382941D03*
X0199734Y0382941D03*
X0199734Y0338059D03*
X0223750Y0338059D03*
X0223750Y0180941D03*
X0199734Y0180941D03*
X0199734Y0136059D03*
X0223750Y0136059D03*
D16*
X0223750Y0158500D03*
X0205750Y0158500D03*
X0417750Y0158500D03*
X0435750Y0158500D03*
X0435750Y0360500D03*
X0417750Y0360500D03*
X0223750Y0360500D03*
X0205750Y0360500D03*
D17*
X0208199Y0315500D03*
X0189301Y0315500D03*
X0401301Y0315500D03*
X0420199Y0315500D03*
X0420199Y0113500D03*
X0401301Y0113500D03*
X0208199Y0113500D03*
X0189301Y0113500D03*
D18*
X0147096Y0127594D02*
X0147096Y0127594D01*
X0149616Y0127594D01*
X0149616Y0127594D01*
X0147096Y0127594D01*
X0147096Y0129563D02*
X0147096Y0129563D01*
X0149616Y0129563D01*
X0149616Y0129563D01*
X0147096Y0129563D01*
X0147096Y0131531D02*
X0147096Y0131531D01*
X0149616Y0131531D01*
X0149616Y0131531D01*
X0147096Y0131531D01*
X0147096Y0133500D02*
X0147096Y0133500D01*
X0149616Y0133500D01*
X0149616Y0133500D01*
X0147096Y0133500D01*
X0147096Y0135469D02*
X0147096Y0135469D01*
X0149616Y0135469D01*
X0149616Y0135469D01*
X0147096Y0135469D01*
X0147096Y0137437D02*
X0147096Y0137437D01*
X0149616Y0137437D01*
X0149616Y0137437D01*
X0147096Y0137437D01*
X0147096Y0139406D02*
X0147096Y0139406D01*
X0149616Y0139406D01*
X0149616Y0139406D01*
X0147096Y0139406D01*
X0144656Y0141846D02*
X0144656Y0141846D01*
X0144656Y0144366D01*
X0144656Y0144366D01*
X0144656Y0141846D01*
X0144656Y0143728D02*
X0144656Y0143728D01*
X0142687Y0141846D02*
X0142687Y0141846D01*
X0142687Y0144366D01*
X0142687Y0144366D01*
X0142687Y0141846D01*
X0142687Y0143728D02*
X0142687Y0143728D01*
X0140719Y0141846D02*
X0140719Y0141846D01*
X0140719Y0144366D01*
X0140719Y0144366D01*
X0140719Y0141846D01*
X0140719Y0143728D02*
X0140719Y0143728D01*
X0138750Y0141846D02*
X0138750Y0141846D01*
X0138750Y0144366D01*
X0138750Y0144366D01*
X0138750Y0141846D01*
X0138750Y0143728D02*
X0138750Y0143728D01*
X0136781Y0141846D02*
X0136781Y0141846D01*
X0136781Y0144366D01*
X0136781Y0144366D01*
X0136781Y0141846D01*
X0136781Y0143728D02*
X0136781Y0143728D01*
X0134813Y0141846D02*
X0134813Y0141846D01*
X0134813Y0144366D01*
X0134813Y0144366D01*
X0134813Y0141846D01*
X0134813Y0143728D02*
X0134813Y0143728D01*
X0132844Y0141846D02*
X0132844Y0141846D01*
X0132844Y0144366D01*
X0132844Y0144366D01*
X0132844Y0141846D01*
X0132844Y0143728D02*
X0132844Y0143728D01*
X0130404Y0139406D02*
X0130404Y0139406D01*
X0127884Y0139406D01*
X0127884Y0139406D01*
X0130404Y0139406D01*
X0130404Y0137437D02*
X0130404Y0137437D01*
X0127884Y0137437D01*
X0127884Y0137437D01*
X0130404Y0137437D01*
X0130404Y0135469D02*
X0130404Y0135469D01*
X0127884Y0135469D01*
X0127884Y0135469D01*
X0130404Y0135469D01*
X0130404Y0133500D02*
X0130404Y0133500D01*
X0127884Y0133500D01*
X0127884Y0133500D01*
X0130404Y0133500D01*
X0130404Y0131531D02*
X0130404Y0131531D01*
X0127884Y0131531D01*
X0127884Y0131531D01*
X0130404Y0131531D01*
X0130404Y0129563D02*
X0130404Y0129563D01*
X0127884Y0129563D01*
X0127884Y0129563D01*
X0130404Y0129563D01*
X0130404Y0127594D02*
X0130404Y0127594D01*
X0127884Y0127594D01*
X0127884Y0127594D01*
X0130404Y0127594D01*
X0132844Y0125154D02*
X0132844Y0125154D01*
X0132844Y0122634D01*
X0132844Y0122634D01*
X0132844Y0125154D01*
X0132844Y0124516D02*
X0132844Y0124516D01*
X0134813Y0125154D02*
X0134813Y0125154D01*
X0134813Y0122634D01*
X0134813Y0122634D01*
X0134813Y0125154D01*
X0134813Y0124516D02*
X0134813Y0124516D01*
X0136781Y0125154D02*
X0136781Y0125154D01*
X0136781Y0122634D01*
X0136781Y0122634D01*
X0136781Y0125154D01*
X0136781Y0124516D02*
X0136781Y0124516D01*
X0138750Y0125154D02*
X0138750Y0125154D01*
X0138750Y0122634D01*
X0138750Y0122634D01*
X0138750Y0125154D01*
X0138750Y0124516D02*
X0138750Y0124516D01*
X0140719Y0125154D02*
X0140719Y0125154D01*
X0140719Y0122634D01*
X0140719Y0122634D01*
X0140719Y0125154D01*
X0140719Y0124516D02*
X0140719Y0124516D01*
X0142687Y0125154D02*
X0142687Y0125154D01*
X0142687Y0122634D01*
X0142687Y0122634D01*
X0142687Y0125154D01*
X0142687Y0124516D02*
X0142687Y0124516D01*
X0144656Y0125154D02*
X0144656Y0125154D01*
X0144656Y0122634D01*
X0144656Y0122634D01*
X0144656Y0125154D01*
X0144656Y0124516D02*
X0144656Y0124516D01*
X0342404Y0127594D02*
X0342404Y0127594D01*
X0339884Y0127594D01*
X0339884Y0127594D01*
X0342404Y0127594D01*
X0342404Y0129563D02*
X0342404Y0129563D01*
X0339884Y0129563D01*
X0339884Y0129563D01*
X0342404Y0129563D01*
X0342404Y0131531D02*
X0342404Y0131531D01*
X0339884Y0131531D01*
X0339884Y0131531D01*
X0342404Y0131531D01*
X0342404Y0133500D02*
X0342404Y0133500D01*
X0339884Y0133500D01*
X0339884Y0133500D01*
X0342404Y0133500D01*
X0342404Y0135469D02*
X0342404Y0135469D01*
X0339884Y0135469D01*
X0339884Y0135469D01*
X0342404Y0135469D01*
X0342404Y0137437D02*
X0342404Y0137437D01*
X0339884Y0137437D01*
X0339884Y0137437D01*
X0342404Y0137437D01*
X0342404Y0139406D02*
X0342404Y0139406D01*
X0339884Y0139406D01*
X0339884Y0139406D01*
X0342404Y0139406D01*
X0344844Y0141846D02*
X0344844Y0141846D01*
X0344844Y0144366D01*
X0344844Y0144366D01*
X0344844Y0141846D01*
X0344844Y0143728D02*
X0344844Y0143728D01*
X0346813Y0141846D02*
X0346813Y0141846D01*
X0346813Y0144366D01*
X0346813Y0144366D01*
X0346813Y0141846D01*
X0346813Y0143728D02*
X0346813Y0143728D01*
X0348781Y0141846D02*
X0348781Y0141846D01*
X0348781Y0144366D01*
X0348781Y0144366D01*
X0348781Y0141846D01*
X0348781Y0143728D02*
X0348781Y0143728D01*
X0350750Y0141846D02*
X0350750Y0141846D01*
X0350750Y0144366D01*
X0350750Y0144366D01*
X0350750Y0141846D01*
X0350750Y0143728D02*
X0350750Y0143728D01*
X0352719Y0141846D02*
X0352719Y0141846D01*
X0352719Y0144366D01*
X0352719Y0144366D01*
X0352719Y0141846D01*
X0352719Y0143728D02*
X0352719Y0143728D01*
X0354687Y0141846D02*
X0354687Y0141846D01*
X0354687Y0144366D01*
X0354687Y0144366D01*
X0354687Y0141846D01*
X0354687Y0143728D02*
X0354687Y0143728D01*
X0356656Y0141846D02*
X0356656Y0141846D01*
X0356656Y0144366D01*
X0356656Y0144366D01*
X0356656Y0141846D01*
X0356656Y0143728D02*
X0356656Y0143728D01*
X0359096Y0139406D02*
X0359096Y0139406D01*
X0361616Y0139406D01*
X0361616Y0139406D01*
X0359096Y0139406D01*
X0359096Y0137437D02*
X0359096Y0137437D01*
X0361616Y0137437D01*
X0361616Y0137437D01*
X0359096Y0137437D01*
X0359096Y0135469D02*
X0359096Y0135469D01*
X0361616Y0135469D01*
X0361616Y0135469D01*
X0359096Y0135469D01*
X0359096Y0133500D02*
X0359096Y0133500D01*
X0361616Y0133500D01*
X0361616Y0133500D01*
X0359096Y0133500D01*
X0359096Y0131531D02*
X0359096Y0131531D01*
X0361616Y0131531D01*
X0361616Y0131531D01*
X0359096Y0131531D01*
X0359096Y0129563D02*
X0359096Y0129563D01*
X0361616Y0129563D01*
X0361616Y0129563D01*
X0359096Y0129563D01*
X0359096Y0127594D02*
X0359096Y0127594D01*
X0361616Y0127594D01*
X0361616Y0127594D01*
X0359096Y0127594D01*
X0356656Y0125154D02*
X0356656Y0125154D01*
X0356656Y0122634D01*
X0356656Y0122634D01*
X0356656Y0125154D01*
X0356656Y0124516D02*
X0356656Y0124516D01*
X0354687Y0125154D02*
X0354687Y0125154D01*
X0354687Y0122634D01*
X0354687Y0122634D01*
X0354687Y0125154D01*
X0354687Y0124516D02*
X0354687Y0124516D01*
X0352719Y0125154D02*
X0352719Y0125154D01*
X0352719Y0122634D01*
X0352719Y0122634D01*
X0352719Y0125154D01*
X0352719Y0124516D02*
X0352719Y0124516D01*
X0350750Y0125154D02*
X0350750Y0125154D01*
X0350750Y0122634D01*
X0350750Y0122634D01*
X0350750Y0125154D01*
X0350750Y0124516D02*
X0350750Y0124516D01*
X0348781Y0125154D02*
X0348781Y0125154D01*
X0348781Y0122634D01*
X0348781Y0122634D01*
X0348781Y0125154D01*
X0348781Y0124516D02*
X0348781Y0124516D01*
X0346813Y0125154D02*
X0346813Y0125154D01*
X0346813Y0122634D01*
X0346813Y0122634D01*
X0346813Y0125154D01*
X0346813Y0124516D02*
X0346813Y0124516D01*
X0344844Y0125154D02*
X0344844Y0125154D01*
X0344844Y0122634D01*
X0344844Y0122634D01*
X0344844Y0125154D01*
X0344844Y0124516D02*
X0344844Y0124516D01*
X0344844Y0327154D02*
X0344844Y0327154D01*
X0344844Y0324634D01*
X0344844Y0324634D01*
X0344844Y0327154D01*
X0344844Y0326516D02*
X0344844Y0326516D01*
X0346813Y0327154D02*
X0346813Y0327154D01*
X0346813Y0324634D01*
X0346813Y0324634D01*
X0346813Y0327154D01*
X0346813Y0326516D02*
X0346813Y0326516D01*
X0348781Y0327154D02*
X0348781Y0327154D01*
X0348781Y0324634D01*
X0348781Y0324634D01*
X0348781Y0327154D01*
X0348781Y0326516D02*
X0348781Y0326516D01*
X0350750Y0327154D02*
X0350750Y0327154D01*
X0350750Y0324634D01*
X0350750Y0324634D01*
X0350750Y0327154D01*
X0350750Y0326516D02*
X0350750Y0326516D01*
X0352719Y0327154D02*
X0352719Y0327154D01*
X0352719Y0324634D01*
X0352719Y0324634D01*
X0352719Y0327154D01*
X0352719Y0326516D02*
X0352719Y0326516D01*
X0354687Y0327154D02*
X0354687Y0327154D01*
X0354687Y0324634D01*
X0354687Y0324634D01*
X0354687Y0327154D01*
X0354687Y0326516D02*
X0354687Y0326516D01*
X0356656Y0327154D02*
X0356656Y0327154D01*
X0356656Y0324634D01*
X0356656Y0324634D01*
X0356656Y0327154D01*
X0356656Y0326516D02*
X0356656Y0326516D01*
X0359096Y0329594D02*
X0359096Y0329594D01*
X0361616Y0329594D01*
X0361616Y0329594D01*
X0359096Y0329594D01*
X0359096Y0331563D02*
X0359096Y0331563D01*
X0361616Y0331563D01*
X0361616Y0331563D01*
X0359096Y0331563D01*
X0359096Y0333531D02*
X0359096Y0333531D01*
X0361616Y0333531D01*
X0361616Y0333531D01*
X0359096Y0333531D01*
X0359096Y0335500D02*
X0359096Y0335500D01*
X0361616Y0335500D01*
X0361616Y0335500D01*
X0359096Y0335500D01*
X0359096Y0337469D02*
X0359096Y0337469D01*
X0361616Y0337469D01*
X0361616Y0337469D01*
X0359096Y0337469D01*
X0359096Y0339437D02*
X0359096Y0339437D01*
X0361616Y0339437D01*
X0361616Y0339437D01*
X0359096Y0339437D01*
X0359096Y0341406D02*
X0359096Y0341406D01*
X0361616Y0341406D01*
X0361616Y0341406D01*
X0359096Y0341406D01*
X0356656Y0343846D02*
X0356656Y0343846D01*
X0356656Y0346366D01*
X0356656Y0346366D01*
X0356656Y0343846D01*
X0356656Y0345728D02*
X0356656Y0345728D01*
X0354687Y0343846D02*
X0354687Y0343846D01*
X0354687Y0346366D01*
X0354687Y0346366D01*
X0354687Y0343846D01*
X0354687Y0345728D02*
X0354687Y0345728D01*
X0352719Y0343846D02*
X0352719Y0343846D01*
X0352719Y0346366D01*
X0352719Y0346366D01*
X0352719Y0343846D01*
X0352719Y0345728D02*
X0352719Y0345728D01*
X0350750Y0343846D02*
X0350750Y0343846D01*
X0350750Y0346366D01*
X0350750Y0346366D01*
X0350750Y0343846D01*
X0350750Y0345728D02*
X0350750Y0345728D01*
X0348781Y0343846D02*
X0348781Y0343846D01*
X0348781Y0346366D01*
X0348781Y0346366D01*
X0348781Y0343846D01*
X0348781Y0345728D02*
X0348781Y0345728D01*
X0346813Y0343846D02*
X0346813Y0343846D01*
X0346813Y0346366D01*
X0346813Y0346366D01*
X0346813Y0343846D01*
X0346813Y0345728D02*
X0346813Y0345728D01*
X0344844Y0343846D02*
X0344844Y0343846D01*
X0344844Y0346366D01*
X0344844Y0346366D01*
X0344844Y0343846D01*
X0344844Y0345728D02*
X0344844Y0345728D01*
X0342404Y0341406D02*
X0342404Y0341406D01*
X0339884Y0341406D01*
X0339884Y0341406D01*
X0342404Y0341406D01*
X0342404Y0339437D02*
X0342404Y0339437D01*
X0339884Y0339437D01*
X0339884Y0339437D01*
X0342404Y0339437D01*
X0342404Y0337469D02*
X0342404Y0337469D01*
X0339884Y0337469D01*
X0339884Y0337469D01*
X0342404Y0337469D01*
X0342404Y0335500D02*
X0342404Y0335500D01*
X0339884Y0335500D01*
X0339884Y0335500D01*
X0342404Y0335500D01*
X0342404Y0333531D02*
X0342404Y0333531D01*
X0339884Y0333531D01*
X0339884Y0333531D01*
X0342404Y0333531D01*
X0342404Y0331563D02*
X0342404Y0331563D01*
X0339884Y0331563D01*
X0339884Y0331563D01*
X0342404Y0331563D01*
X0342404Y0329594D02*
X0342404Y0329594D01*
X0339884Y0329594D01*
X0339884Y0329594D01*
X0342404Y0329594D01*
X0147096Y0329594D02*
X0147096Y0329594D01*
X0149616Y0329594D01*
X0149616Y0329594D01*
X0147096Y0329594D01*
X0147096Y0331563D02*
X0147096Y0331563D01*
X0149616Y0331563D01*
X0149616Y0331563D01*
X0147096Y0331563D01*
X0147096Y0333531D02*
X0147096Y0333531D01*
X0149616Y0333531D01*
X0149616Y0333531D01*
X0147096Y0333531D01*
X0147096Y0335500D02*
X0147096Y0335500D01*
X0149616Y0335500D01*
X0149616Y0335500D01*
X0147096Y0335500D01*
X0147096Y0337469D02*
X0147096Y0337469D01*
X0149616Y0337469D01*
X0149616Y0337469D01*
X0147096Y0337469D01*
X0147096Y0339437D02*
X0147096Y0339437D01*
X0149616Y0339437D01*
X0149616Y0339437D01*
X0147096Y0339437D01*
X0147096Y0341406D02*
X0147096Y0341406D01*
X0149616Y0341406D01*
X0149616Y0341406D01*
X0147096Y0341406D01*
X0144656Y0343846D02*
X0144656Y0343846D01*
X0144656Y0346366D01*
X0144656Y0346366D01*
X0144656Y0343846D01*
X0144656Y0345728D02*
X0144656Y0345728D01*
X0142687Y0343846D02*
X0142687Y0343846D01*
X0142687Y0346366D01*
X0142687Y0346366D01*
X0142687Y0343846D01*
X0142687Y0345728D02*
X0142687Y0345728D01*
X0140719Y0343846D02*
X0140719Y0343846D01*
X0140719Y0346366D01*
X0140719Y0346366D01*
X0140719Y0343846D01*
X0140719Y0345728D02*
X0140719Y0345728D01*
X0138750Y0343846D02*
X0138750Y0343846D01*
X0138750Y0346366D01*
X0138750Y0346366D01*
X0138750Y0343846D01*
X0138750Y0345728D02*
X0138750Y0345728D01*
X0136781Y0343846D02*
X0136781Y0343846D01*
X0136781Y0346366D01*
X0136781Y0346366D01*
X0136781Y0343846D01*
X0136781Y0345728D02*
X0136781Y0345728D01*
X0134813Y0343846D02*
X0134813Y0343846D01*
X0134813Y0346366D01*
X0134813Y0346366D01*
X0134813Y0343846D01*
X0134813Y0345728D02*
X0134813Y0345728D01*
X0132844Y0343846D02*
X0132844Y0343846D01*
X0132844Y0346366D01*
X0132844Y0346366D01*
X0132844Y0343846D01*
X0132844Y0345728D02*
X0132844Y0345728D01*
X0130404Y0341406D02*
X0130404Y0341406D01*
X0127884Y0341406D01*
X0127884Y0341406D01*
X0130404Y0341406D01*
X0130404Y0339437D02*
X0130404Y0339437D01*
X0127884Y0339437D01*
X0127884Y0339437D01*
X0130404Y0339437D01*
X0130404Y0337469D02*
X0130404Y0337469D01*
X0127884Y0337469D01*
X0127884Y0337469D01*
X0130404Y0337469D01*
X0130404Y0335500D02*
X0130404Y0335500D01*
X0127884Y0335500D01*
X0127884Y0335500D01*
X0130404Y0335500D01*
X0130404Y0333531D02*
X0130404Y0333531D01*
X0127884Y0333531D01*
X0127884Y0333531D01*
X0130404Y0333531D01*
X0130404Y0331563D02*
X0130404Y0331563D01*
X0127884Y0331563D01*
X0127884Y0331563D01*
X0130404Y0331563D01*
X0130404Y0329594D02*
X0130404Y0329594D01*
X0127884Y0329594D01*
X0127884Y0329594D01*
X0130404Y0329594D01*
X0132844Y0327154D02*
X0132844Y0327154D01*
X0132844Y0324634D01*
X0132844Y0324634D01*
X0132844Y0327154D01*
X0132844Y0326516D02*
X0132844Y0326516D01*
X0134813Y0327154D02*
X0134813Y0327154D01*
X0134813Y0324634D01*
X0134813Y0324634D01*
X0134813Y0327154D01*
X0134813Y0326516D02*
X0134813Y0326516D01*
X0136781Y0327154D02*
X0136781Y0327154D01*
X0136781Y0324634D01*
X0136781Y0324634D01*
X0136781Y0327154D01*
X0136781Y0326516D02*
X0136781Y0326516D01*
X0138750Y0327154D02*
X0138750Y0327154D01*
X0138750Y0324634D01*
X0138750Y0324634D01*
X0138750Y0327154D01*
X0138750Y0326516D02*
X0138750Y0326516D01*
X0140719Y0327154D02*
X0140719Y0327154D01*
X0140719Y0324634D01*
X0140719Y0324634D01*
X0140719Y0327154D01*
X0140719Y0326516D02*
X0140719Y0326516D01*
X0142687Y0327154D02*
X0142687Y0327154D01*
X0142687Y0324634D01*
X0142687Y0324634D01*
X0142687Y0327154D01*
X0142687Y0326516D02*
X0142687Y0326516D01*
X0144656Y0327154D02*
X0144656Y0327154D01*
X0144656Y0324634D01*
X0144656Y0324634D01*
X0144656Y0327154D01*
X0144656Y0326516D02*
X0144656Y0326516D01*
D19*
X0138750Y0335500D03*
X0350750Y0335500D03*
X0350750Y0133500D03*
X0138750Y0133500D03*
D20*
X0043750Y0100500D03*
X0043750Y0090500D03*
X0043750Y0080500D03*
X0043750Y0070500D03*
X0043750Y0060500D03*
X0043750Y0050500D03*
X0118750Y0033500D03*
X0128750Y0033500D03*
X0138750Y0033500D03*
X0148750Y0033500D03*
X0158750Y0033500D03*
X0255750Y0050500D03*
X0255750Y0060500D03*
X0255750Y0070500D03*
X0255750Y0080500D03*
X0255750Y0090500D03*
X0255750Y0100500D03*
X0330750Y0033500D03*
X0340750Y0033500D03*
X0350750Y0033500D03*
X0360750Y0033500D03*
X0370750Y0033500D03*
X0370750Y0235500D03*
X0360750Y0235500D03*
X0350750Y0235500D03*
X0340750Y0235500D03*
X0330750Y0235500D03*
X0255750Y0252500D03*
X0255750Y0262500D03*
X0255750Y0272500D03*
X0255750Y0282500D03*
X0255750Y0292500D03*
X0255750Y0302500D03*
X0158750Y0235500D03*
X0148750Y0235500D03*
X0138750Y0235500D03*
X0128750Y0235500D03*
X0118750Y0235500D03*
X0043750Y0252500D03*
X0043750Y0262500D03*
X0043750Y0272500D03*
X0043750Y0282500D03*
X0043750Y0292500D03*
X0043750Y0302500D03*
D21*
X0077726Y0236031D03*
X0099774Y0236031D03*
X0177726Y0236031D03*
X0199774Y0236031D03*
X0289726Y0236031D03*
X0311774Y0236031D03*
X0389726Y0236031D03*
X0411774Y0236031D03*
X0411774Y0034031D03*
X0389726Y0034031D03*
X0311774Y0034031D03*
X0289726Y0034031D03*
X0199774Y0034031D03*
X0177726Y0034031D03*
X0099774Y0034031D03*
X0077726Y0034031D03*
D22*
X0082844Y0048500D03*
X0086781Y0048500D03*
X0090719Y0048500D03*
X0094656Y0048500D03*
X0182844Y0048500D03*
X0186781Y0048500D03*
X0190719Y0048500D03*
X0194656Y0048500D03*
X0294844Y0048500D03*
X0298781Y0048500D03*
X0302719Y0048500D03*
X0306656Y0048500D03*
X0394844Y0048500D03*
X0398781Y0048500D03*
X0402719Y0048500D03*
X0406656Y0048500D03*
X0406656Y0250500D03*
X0402719Y0250500D03*
X0398781Y0250500D03*
X0394844Y0250500D03*
X0306656Y0250500D03*
X0302719Y0250500D03*
X0298781Y0250500D03*
X0294844Y0250500D03*
X0194656Y0250500D03*
X0190719Y0250500D03*
X0186781Y0250500D03*
X0182844Y0250500D03*
X0094656Y0250500D03*
X0090719Y0250500D03*
X0086781Y0250500D03*
X0082844Y0250500D03*
D23*
X0118250Y0264000D03*
X0122250Y0264000D03*
X0330250Y0264000D03*
X0334250Y0264000D03*
X0334250Y0062000D03*
X0330250Y0062000D03*
X0122250Y0062000D03*
X0118250Y0062000D03*
D24*
X0119500Y0061900D02*
X0121000Y0061900D01*
X0121000Y0061500D02*
X0121000Y0062500D01*
X0119500Y0062500D01*
X0119500Y0061500D01*
X0121000Y0061500D01*
X0121000Y0062399D02*
X0119500Y0062399D01*
X0331500Y0062399D02*
X0333000Y0062399D01*
X0333000Y0062500D02*
X0333000Y0061500D01*
X0331500Y0061500D01*
X0331500Y0062500D01*
X0333000Y0062500D01*
X0333000Y0061900D02*
X0331500Y0061900D01*
X0331500Y0263500D02*
X0331500Y0264500D01*
X0333000Y0264500D01*
X0333000Y0263500D01*
X0331500Y0263500D01*
X0331500Y0263797D02*
X0333000Y0263797D01*
X0333000Y0264296D02*
X0331500Y0264296D01*
X0121000Y0264296D02*
X0119500Y0264296D01*
X0119500Y0264500D02*
X0121000Y0264500D01*
X0121000Y0263500D01*
X0119500Y0263500D01*
X0119500Y0264500D01*
X0119500Y0263797D02*
X0121000Y0263797D01*
D25*
X0073576Y0179873D02*
X0073576Y0177127D01*
X0070830Y0177127D01*
X0070830Y0179873D01*
X0073576Y0179873D01*
X0073576Y0179017D02*
X0070830Y0179017D01*
X0066670Y0179873D02*
X0066670Y0177127D01*
X0063924Y0177127D01*
X0063924Y0179873D01*
X0066670Y0179873D01*
X0066670Y0179017D02*
X0063924Y0179017D01*
X0066670Y0169873D02*
X0066670Y0167127D01*
X0063924Y0167127D01*
X0063924Y0169873D01*
X0066670Y0169873D01*
X0066670Y0169017D02*
X0063924Y0169017D01*
X0073576Y0169873D02*
X0073576Y0167127D01*
X0070830Y0167127D01*
X0070830Y0169873D01*
X0073576Y0169873D01*
X0073576Y0169017D02*
X0070830Y0169017D01*
X0073576Y0159873D02*
X0073576Y0157127D01*
X0070830Y0157127D01*
X0070830Y0159873D01*
X0073576Y0159873D01*
X0073576Y0159017D02*
X0070830Y0159017D01*
X0066670Y0159873D02*
X0066670Y0157127D01*
X0063924Y0157127D01*
X0063924Y0159873D01*
X0066670Y0159873D01*
X0066670Y0159017D02*
X0063924Y0159017D01*
X0066670Y0149873D02*
X0066670Y0147127D01*
X0063924Y0147127D01*
X0063924Y0149873D01*
X0066670Y0149873D01*
X0066670Y0149017D02*
X0063924Y0149017D01*
X0073576Y0149873D02*
X0073576Y0147127D01*
X0070830Y0147127D01*
X0070830Y0149873D01*
X0073576Y0149873D01*
X0073576Y0149017D02*
X0070830Y0149017D01*
X0278670Y0149873D02*
X0278670Y0147127D01*
X0275924Y0147127D01*
X0275924Y0149873D01*
X0278670Y0149873D01*
X0278670Y0149017D02*
X0275924Y0149017D01*
X0285576Y0149873D02*
X0285576Y0147127D01*
X0282830Y0147127D01*
X0282830Y0149873D01*
X0285576Y0149873D01*
X0285576Y0149017D02*
X0282830Y0149017D01*
X0285576Y0157127D02*
X0285576Y0159873D01*
X0285576Y0157127D02*
X0282830Y0157127D01*
X0282830Y0159873D01*
X0285576Y0159873D01*
X0285576Y0159017D02*
X0282830Y0159017D01*
X0278670Y0159873D02*
X0278670Y0157127D01*
X0275924Y0157127D01*
X0275924Y0159873D01*
X0278670Y0159873D01*
X0278670Y0159017D02*
X0275924Y0159017D01*
X0278670Y0167127D02*
X0278670Y0169873D01*
X0278670Y0167127D02*
X0275924Y0167127D01*
X0275924Y0169873D01*
X0278670Y0169873D01*
X0278670Y0169017D02*
X0275924Y0169017D01*
X0285576Y0169873D02*
X0285576Y0167127D01*
X0282830Y0167127D01*
X0282830Y0169873D01*
X0285576Y0169873D01*
X0285576Y0169017D02*
X0282830Y0169017D01*
X0285576Y0177127D02*
X0285576Y0179873D01*
X0285576Y0177127D02*
X0282830Y0177127D01*
X0282830Y0179873D01*
X0285576Y0179873D01*
X0285576Y0179017D02*
X0282830Y0179017D01*
X0278670Y0179873D02*
X0278670Y0177127D01*
X0275924Y0177127D01*
X0275924Y0179873D01*
X0278670Y0179873D01*
X0278670Y0179017D02*
X0275924Y0179017D01*
X0278670Y0349127D02*
X0278670Y0351873D01*
X0278670Y0349127D02*
X0275924Y0349127D01*
X0275924Y0351873D01*
X0278670Y0351873D01*
X0278670Y0351017D02*
X0275924Y0351017D01*
X0285576Y0351873D02*
X0285576Y0349127D01*
X0282830Y0349127D01*
X0282830Y0351873D01*
X0285576Y0351873D01*
X0285576Y0351017D02*
X0282830Y0351017D01*
X0285576Y0359127D02*
X0285576Y0361873D01*
X0285576Y0359127D02*
X0282830Y0359127D01*
X0282830Y0361873D01*
X0285576Y0361873D01*
X0285576Y0361017D02*
X0282830Y0361017D01*
X0278670Y0361873D02*
X0278670Y0359127D01*
X0275924Y0359127D01*
X0275924Y0361873D01*
X0278670Y0361873D01*
X0278670Y0361017D02*
X0275924Y0361017D01*
X0278670Y0369127D02*
X0278670Y0371873D01*
X0278670Y0369127D02*
X0275924Y0369127D01*
X0275924Y0371873D01*
X0278670Y0371873D01*
X0278670Y0371017D02*
X0275924Y0371017D01*
X0285576Y0371873D02*
X0285576Y0369127D01*
X0282830Y0369127D01*
X0282830Y0371873D01*
X0285576Y0371873D01*
X0285576Y0371017D02*
X0282830Y0371017D01*
X0285576Y0379127D02*
X0285576Y0381873D01*
X0285576Y0379127D02*
X0282830Y0379127D01*
X0282830Y0381873D01*
X0285576Y0381873D01*
X0285576Y0381017D02*
X0282830Y0381017D01*
X0278670Y0381873D02*
X0278670Y0379127D01*
X0275924Y0379127D01*
X0275924Y0381873D01*
X0278670Y0381873D01*
X0278670Y0381017D02*
X0275924Y0381017D01*
X0073576Y0381873D02*
X0073576Y0379127D01*
X0070830Y0379127D01*
X0070830Y0381873D01*
X0073576Y0381873D01*
X0073576Y0381017D02*
X0070830Y0381017D01*
X0066670Y0381873D02*
X0066670Y0379127D01*
X0063924Y0379127D01*
X0063924Y0381873D01*
X0066670Y0381873D01*
X0066670Y0381017D02*
X0063924Y0381017D01*
X0066670Y0371873D02*
X0066670Y0369127D01*
X0063924Y0369127D01*
X0063924Y0371873D01*
X0066670Y0371873D01*
X0066670Y0371017D02*
X0063924Y0371017D01*
X0073576Y0371873D02*
X0073576Y0369127D01*
X0070830Y0369127D01*
X0070830Y0371873D01*
X0073576Y0371873D01*
X0073576Y0371017D02*
X0070830Y0371017D01*
X0073576Y0361873D02*
X0073576Y0359127D01*
X0070830Y0359127D01*
X0070830Y0361873D01*
X0073576Y0361873D01*
X0073576Y0361017D02*
X0070830Y0361017D01*
X0066670Y0361873D02*
X0066670Y0359127D01*
X0063924Y0359127D01*
X0063924Y0361873D01*
X0066670Y0361873D01*
X0066670Y0361017D02*
X0063924Y0361017D01*
X0066670Y0351873D02*
X0066670Y0349127D01*
X0063924Y0349127D01*
X0063924Y0351873D01*
X0066670Y0351873D01*
X0066670Y0351017D02*
X0063924Y0351017D01*
X0073576Y0351873D02*
X0073576Y0349127D01*
X0070830Y0349127D01*
X0070830Y0351873D01*
X0073576Y0351873D01*
X0073576Y0351017D02*
X0070830Y0351017D01*
D26*
X0175886Y0305224D02*
X0181614Y0305224D01*
X0181614Y0300500D02*
X0175886Y0300500D01*
X0175886Y0295776D02*
X0181614Y0295776D01*
X0387886Y0295776D02*
X0393614Y0295776D01*
X0393614Y0300500D02*
X0387886Y0300500D01*
X0387886Y0305224D02*
X0393614Y0305224D01*
X0393614Y0103224D02*
X0387886Y0103224D01*
X0387886Y0098500D02*
X0393614Y0098500D01*
X0393614Y0093776D02*
X0387886Y0093776D01*
X0181614Y0093776D02*
X0175886Y0093776D01*
X0175886Y0098500D02*
X0181614Y0098500D01*
X0181614Y0103224D02*
X0175886Y0103224D01*
D27*
X0178760Y0098490D03*
X0390760Y0098490D03*
X0390760Y0300490D03*
X0178760Y0300490D03*
D28*
X0155650Y0301524D03*
X0155650Y0298374D03*
X0155650Y0295224D03*
X0155650Y0292075D03*
X0155650Y0288925D03*
X0155650Y0285776D03*
X0155650Y0282626D03*
X0155650Y0279476D03*
X0121850Y0279476D03*
X0121850Y0282626D03*
X0121850Y0285776D03*
X0121850Y0288925D03*
X0121850Y0292075D03*
X0121850Y0295224D03*
X0121850Y0298374D03*
X0121850Y0301524D03*
X0333850Y0301524D03*
X0333850Y0298374D03*
X0333850Y0295224D03*
X0333850Y0292075D03*
X0333850Y0288925D03*
X0333850Y0285776D03*
X0333850Y0282626D03*
X0333850Y0279476D03*
X0367650Y0279476D03*
X0367650Y0282626D03*
X0367650Y0285776D03*
X0367650Y0288925D03*
X0367650Y0292075D03*
X0367650Y0295224D03*
X0367650Y0298374D03*
X0367650Y0301524D03*
X0367650Y0099524D03*
X0367650Y0096374D03*
X0367650Y0093224D03*
X0367650Y0090075D03*
X0367650Y0086925D03*
X0367650Y0083776D03*
X0367650Y0080626D03*
X0367650Y0077476D03*
X0333850Y0077476D03*
X0333850Y0080626D03*
X0333850Y0083776D03*
X0333850Y0086925D03*
X0333850Y0090075D03*
X0333850Y0093224D03*
X0333850Y0096374D03*
X0333850Y0099524D03*
X0155650Y0099524D03*
X0155650Y0096374D03*
X0155650Y0093224D03*
X0155650Y0090075D03*
X0155650Y0086925D03*
X0155650Y0083776D03*
X0155650Y0080626D03*
X0155650Y0077476D03*
X0121850Y0077476D03*
X0121850Y0080626D03*
X0121850Y0083776D03*
X0121850Y0086925D03*
X0121850Y0090075D03*
X0121850Y0093224D03*
X0121850Y0096374D03*
X0121850Y0099524D03*
D29*
X0127726Y0105400D03*
X0130876Y0105400D03*
X0134026Y0105400D03*
X0137175Y0105400D03*
X0140325Y0105400D03*
X0143474Y0105400D03*
X0146624Y0105400D03*
X0149774Y0105400D03*
X0149774Y0071600D03*
X0146624Y0071600D03*
X0143474Y0071600D03*
X0140325Y0071600D03*
X0137175Y0071600D03*
X0134026Y0071600D03*
X0130876Y0071600D03*
X0127726Y0071600D03*
X0339726Y0071600D03*
X0342876Y0071600D03*
X0346026Y0071600D03*
X0349175Y0071600D03*
X0352325Y0071600D03*
X0355474Y0071600D03*
X0358624Y0071600D03*
X0361774Y0071600D03*
X0361774Y0105400D03*
X0358624Y0105400D03*
X0355474Y0105400D03*
X0352325Y0105400D03*
X0349175Y0105400D03*
X0346026Y0105400D03*
X0342876Y0105400D03*
X0339726Y0105400D03*
X0339726Y0273600D03*
X0342876Y0273600D03*
X0346026Y0273600D03*
X0349175Y0273600D03*
X0352325Y0273600D03*
X0355474Y0273600D03*
X0358624Y0273600D03*
X0361774Y0273600D03*
X0361774Y0307400D03*
X0358624Y0307400D03*
X0355474Y0307400D03*
X0352325Y0307400D03*
X0349175Y0307400D03*
X0346026Y0307400D03*
X0342876Y0307400D03*
X0339726Y0307400D03*
X0149774Y0307400D03*
X0146624Y0307400D03*
X0143474Y0307400D03*
X0140325Y0307400D03*
X0137175Y0307400D03*
X0134026Y0307400D03*
X0130876Y0307400D03*
X0127726Y0307400D03*
X0127726Y0273600D03*
X0130876Y0273600D03*
X0134026Y0273600D03*
X0137175Y0273600D03*
X0140325Y0273600D03*
X0143474Y0273600D03*
X0146624Y0273600D03*
X0149774Y0273600D03*
D30*
X0099750Y0273000D03*
X0099750Y0288000D03*
X0077750Y0288000D03*
X0077750Y0273000D03*
X0289750Y0273000D03*
X0289750Y0288000D03*
X0311750Y0288000D03*
X0311750Y0273000D03*
X0311750Y0086000D03*
X0311750Y0071000D03*
X0289750Y0071000D03*
X0289750Y0086000D03*
X0099750Y0086000D03*
X0099750Y0071000D03*
X0077750Y0071000D03*
X0077750Y0086000D03*
D31*
X0074813Y0198933D03*
X0082687Y0198933D03*
X0194813Y0198933D03*
X0202687Y0198933D03*
X0286813Y0198933D03*
X0294687Y0198933D03*
X0406813Y0198933D03*
X0414687Y0198933D03*
X0414687Y0400933D03*
X0406813Y0400933D03*
X0294687Y0400933D03*
X0286813Y0400933D03*
X0202687Y0400933D03*
X0194813Y0400933D03*
X0082687Y0400933D03*
X0074813Y0400933D03*
D32*
X0065364Y0421406D03*
X0092136Y0421406D03*
X0185364Y0421406D03*
X0212136Y0421406D03*
X0277364Y0421406D03*
X0304136Y0421406D03*
X0397364Y0421406D03*
X0424136Y0421406D03*
X0424136Y0219406D03*
X0397364Y0219406D03*
X0304136Y0219406D03*
X0277364Y0219406D03*
X0212136Y0219406D03*
X0185364Y0219406D03*
X0092136Y0219406D03*
X0065364Y0219406D03*
D33*
X0109222Y0203500D03*
X0128907Y0203500D03*
X0148593Y0203500D03*
X0168278Y0203500D03*
X0213750Y0270657D03*
X0213750Y0290343D03*
X0321222Y0203500D03*
X0340907Y0203500D03*
X0360593Y0203500D03*
X0380278Y0203500D03*
X0425750Y0270657D03*
X0425750Y0290343D03*
X0380278Y0405500D03*
X0360593Y0405500D03*
X0340907Y0405500D03*
X0321222Y0405500D03*
X0168278Y0405500D03*
X0148593Y0405500D03*
X0128907Y0405500D03*
X0109222Y0405500D03*
X0213750Y0088343D03*
X0213750Y0068657D03*
X0425750Y0068657D03*
X0425750Y0088343D03*
D34*
X0330869Y0139760D03*
X0330869Y0143500D03*
X0330869Y0147240D03*
X0320631Y0147240D03*
X0320631Y0139760D03*
X0118869Y0139760D03*
X0118869Y0143500D03*
X0118869Y0147240D03*
X0108631Y0147240D03*
X0108631Y0139760D03*
X0108631Y0341760D03*
X0108631Y0349240D03*
X0118869Y0349240D03*
X0118869Y0345500D03*
X0118869Y0341760D03*
X0320631Y0341760D03*
X0320631Y0349240D03*
X0330869Y0349240D03*
X0330869Y0345500D03*
X0330869Y0341760D03*
D35*
X0430750Y0425500D03*
X0413750Y0438750D03*
X0218750Y0425500D03*
X0075750Y0438750D03*
X0058750Y0235500D03*
X0218750Y0223500D03*
X0270750Y0235500D03*
X0430750Y0223500D03*
X0270750Y0033500D03*
X0058750Y0033500D03*
D36*
X0072185Y0020250D02*
X0072187Y0020369D01*
X0072193Y0020488D01*
X0072203Y0020607D01*
X0072217Y0020725D01*
X0072235Y0020843D01*
X0072256Y0020960D01*
X0072282Y0021076D01*
X0072312Y0021192D01*
X0072345Y0021306D01*
X0072382Y0021419D01*
X0072423Y0021531D01*
X0072468Y0021642D01*
X0072516Y0021751D01*
X0072568Y0021858D01*
X0072624Y0021963D01*
X0072683Y0022067D01*
X0072745Y0022168D01*
X0072811Y0022268D01*
X0072880Y0022365D01*
X0072952Y0022459D01*
X0073028Y0022552D01*
X0073106Y0022641D01*
X0073187Y0022728D01*
X0073272Y0022813D01*
X0073359Y0022894D01*
X0073448Y0022972D01*
X0073541Y0023048D01*
X0073635Y0023120D01*
X0073732Y0023189D01*
X0073832Y0023255D01*
X0073933Y0023317D01*
X0074037Y0023376D01*
X0074142Y0023432D01*
X0074249Y0023484D01*
X0074358Y0023532D01*
X0074469Y0023577D01*
X0074581Y0023618D01*
X0074694Y0023655D01*
X0074808Y0023688D01*
X0074924Y0023718D01*
X0075040Y0023744D01*
X0075157Y0023765D01*
X0075275Y0023783D01*
X0075393Y0023797D01*
X0075512Y0023807D01*
X0075631Y0023813D01*
X0075750Y0023815D01*
X0075869Y0023813D01*
X0075988Y0023807D01*
X0076107Y0023797D01*
X0076225Y0023783D01*
X0076343Y0023765D01*
X0076460Y0023744D01*
X0076576Y0023718D01*
X0076692Y0023688D01*
X0076806Y0023655D01*
X0076919Y0023618D01*
X0077031Y0023577D01*
X0077142Y0023532D01*
X0077251Y0023484D01*
X0077358Y0023432D01*
X0077463Y0023376D01*
X0077567Y0023317D01*
X0077668Y0023255D01*
X0077768Y0023189D01*
X0077865Y0023120D01*
X0077959Y0023048D01*
X0078052Y0022972D01*
X0078141Y0022894D01*
X0078228Y0022813D01*
X0078313Y0022728D01*
X0078394Y0022641D01*
X0078472Y0022552D01*
X0078548Y0022459D01*
X0078620Y0022365D01*
X0078689Y0022268D01*
X0078755Y0022168D01*
X0078817Y0022067D01*
X0078876Y0021963D01*
X0078932Y0021858D01*
X0078984Y0021751D01*
X0079032Y0021642D01*
X0079077Y0021531D01*
X0079118Y0021419D01*
X0079155Y0021306D01*
X0079188Y0021192D01*
X0079218Y0021076D01*
X0079244Y0020960D01*
X0079265Y0020843D01*
X0079283Y0020725D01*
X0079297Y0020607D01*
X0079307Y0020488D01*
X0079313Y0020369D01*
X0079315Y0020250D01*
X0079313Y0020131D01*
X0079307Y0020012D01*
X0079297Y0019893D01*
X0079283Y0019775D01*
X0079265Y0019657D01*
X0079244Y0019540D01*
X0079218Y0019424D01*
X0079188Y0019308D01*
X0079155Y0019194D01*
X0079118Y0019081D01*
X0079077Y0018969D01*
X0079032Y0018858D01*
X0078984Y0018749D01*
X0078932Y0018642D01*
X0078876Y0018537D01*
X0078817Y0018433D01*
X0078755Y0018332D01*
X0078689Y0018232D01*
X0078620Y0018135D01*
X0078548Y0018041D01*
X0078472Y0017948D01*
X0078394Y0017859D01*
X0078313Y0017772D01*
X0078228Y0017687D01*
X0078141Y0017606D01*
X0078052Y0017528D01*
X0077959Y0017452D01*
X0077865Y0017380D01*
X0077768Y0017311D01*
X0077668Y0017245D01*
X0077567Y0017183D01*
X0077463Y0017124D01*
X0077358Y0017068D01*
X0077251Y0017016D01*
X0077142Y0016968D01*
X0077031Y0016923D01*
X0076919Y0016882D01*
X0076806Y0016845D01*
X0076692Y0016812D01*
X0076576Y0016782D01*
X0076460Y0016756D01*
X0076343Y0016735D01*
X0076225Y0016717D01*
X0076107Y0016703D01*
X0075988Y0016693D01*
X0075869Y0016687D01*
X0075750Y0016685D01*
X0075631Y0016687D01*
X0075512Y0016693D01*
X0075393Y0016703D01*
X0075275Y0016717D01*
X0075157Y0016735D01*
X0075040Y0016756D01*
X0074924Y0016782D01*
X0074808Y0016812D01*
X0074694Y0016845D01*
X0074581Y0016882D01*
X0074469Y0016923D01*
X0074358Y0016968D01*
X0074249Y0017016D01*
X0074142Y0017068D01*
X0074037Y0017124D01*
X0073933Y0017183D01*
X0073832Y0017245D01*
X0073732Y0017311D01*
X0073635Y0017380D01*
X0073541Y0017452D01*
X0073448Y0017528D01*
X0073359Y0017606D01*
X0073272Y0017687D01*
X0073187Y0017772D01*
X0073106Y0017859D01*
X0073028Y0017948D01*
X0072952Y0018041D01*
X0072880Y0018135D01*
X0072811Y0018232D01*
X0072745Y0018332D01*
X0072683Y0018433D01*
X0072624Y0018537D01*
X0072568Y0018642D01*
X0072516Y0018749D01*
X0072468Y0018858D01*
X0072423Y0018969D01*
X0072382Y0019081D01*
X0072345Y0019194D01*
X0072312Y0019308D01*
X0072282Y0019424D01*
X0072256Y0019540D01*
X0072235Y0019657D01*
X0072217Y0019775D01*
X0072203Y0019893D01*
X0072193Y0020012D01*
X0072187Y0020131D01*
X0072185Y0020250D01*
D37*
X0075750Y0020250D03*
M02*
