%
M48
M72
T01C0.0150
T02C0.0200
T03C0.0230
T04C0.0400
T05C0.0591
T06C0.0800
T07C0.1300
%
T01
X7875Y4350
X8675Y4350
X10875Y4595
X12375Y3950
X13325Y3950
X13875Y4800
X13420Y5205
X14025Y6100
X14388Y6363
X14675Y6650
X14930Y6350
X15675Y5850
X15525Y5400
X14925Y5400
X13075Y6355
X11375Y6200
X10625Y6700
X10525Y7100
X11375Y7850
X11675Y8350
X11425Y8900
X10875Y9850
X10375Y10145
X11330Y10245
X12225Y10400
X12770Y9850
X13880Y9850
X14675Y9950
X15975Y10900
X16270Y10286
X16675Y10300
X16075Y9050
X16075Y8400
X17188Y8403
X18075Y8200
X18425Y8900
X19275Y8450
X17675Y7100
X16875Y6800
X16080Y7145
X17875Y4350
X18675Y4350
X18625Y3950
X18625Y10150
X18075Y11350
X16775Y12100
X17275Y14150
X17275Y14551
X16825Y14550
X18225Y15000
X18225Y15550
X17375Y16350
X15975Y16500
X14325Y13800
X14325Y13350
X14325Y12900
X13875Y12900
X13875Y13350
X13875Y13800
X13425Y13800
X13425Y13350
X13425Y12900
X12475Y14300
X11375Y14700
X11375Y13850
X10525Y14350
X10525Y15300
X10375Y16350
X9525Y16650
X9175Y16850
X8963Y16300
X9075Y15400
X9175Y15050
X8875Y14350
X6025Y14950
X5580Y14384
X5125Y14400
X4775Y14950
X6025Y15850
X6075Y16550
X6025Y17850
X6325Y18650
X8275Y18700
X9175Y17850
X12375Y24150
X13325Y24150
X13875Y25000
X13420Y25405
X14025Y26300
X14388Y26563
X14675Y26850
X14930Y26550
X15675Y26050
X15525Y25600
X14925Y25600
X13075Y26555
X11375Y26400
X10625Y26900
X10525Y27300
X11375Y28050
X11675Y28550
X11425Y29100
X10875Y30050
X10375Y30345
X11330Y30445
X12225Y30600
X12770Y30050
X13880Y30050
X14675Y30150
X15975Y31100
X16270Y30486
X16675Y30500
X16075Y29250
X16075Y28600
X17188Y28603
X18075Y28400
X18425Y29100
X19275Y28650
X17675Y27300
X16875Y27000
X16080Y27345
X17875Y24550
X18675Y24550
X18625Y24150
X22375Y18850
X19275Y18750
X18975Y18100
X20825Y14400
X21875Y10350
X26625Y8050
X27025Y7550
X28075Y9800
X29425Y9750
X30075Y9350
X30270Y10050
X31575Y10145
X32075Y9850
X32530Y10245
X33425Y10400
X33970Y9850
X35080Y9850
X35875Y9950
X37175Y10900
X37470Y10286
X37875Y10300
X39275Y11350
X39825Y10150
X39625Y8900
X40475Y8450
X39275Y8200
X38388Y8403
X37275Y8400
X37275Y9050
X37280Y7145
X38075Y6800
X38875Y7100
X36875Y5850
X36725Y5400
X36125Y5400
X36130Y6350
X35875Y6650
X35588Y6363
X35225Y6100
X34275Y6355
X34620Y5205
X35075Y4800
X34525Y3950
X33575Y3950
X32075Y4595
X32575Y6200
X31825Y6700
X31725Y7100
X32575Y7850
X32875Y8350
X32625Y8900
X34625Y12900
X34625Y13350
X34625Y13800
X35075Y13800
X35075Y13350
X35075Y12900
X35525Y12900
X35525Y13350
X35525Y13800
X33675Y14300
X32575Y14700
X31725Y14350
X32575Y13850
X31725Y15300
X31575Y16350
X30725Y16650
X30375Y16850
X30163Y16300
X30275Y15400
X30375Y15050
X30075Y14350
X27225Y14950
X26780Y14384
X26325Y14400
X25975Y14950
X27225Y15850
X27275Y16550
X27225Y17850
X27525Y18650
X29475Y18700
X30375Y17850
X37175Y16500
X38575Y16350
X39425Y15550
X39425Y15000
X38475Y14551
X38475Y14150
X38025Y14550
X37975Y12100
X42025Y14400
X40175Y18100
X40475Y18750
X43575Y18850
X39825Y24150
X39875Y24550
X39075Y24550
X36725Y25600
X36875Y26050
X36125Y25600
X36130Y26550
X35875Y26850
X35588Y26563
X35225Y26300
X34275Y26555
X34620Y25405
X35075Y25000
X34525Y24150
X33575Y24150
X32075Y24795
X32575Y26400
X31825Y26900
X31725Y27300
X32575Y28050
X32875Y28550
X32625Y29100
X32075Y30050
X31575Y30345
X32530Y30445
X33425Y30600
X33970Y30050
X35080Y30050
X35875Y30150
X37175Y31100
X37470Y30486
X37875Y30500
X39275Y31550
X39825Y30350
X39625Y29100
X40475Y28650
X39275Y28400
X38388Y28603
X37275Y28600
X37275Y29250
X37280Y27345
X38075Y27000
X38875Y27300
X43075Y30550
X38475Y34350
X38475Y34751
X38025Y34750
X39425Y35200
X39425Y35750
X38575Y36550
X37175Y36700
X35525Y34000
X35525Y33550
X35525Y33100
X35075Y33100
X35075Y33550
X35075Y34000
X34625Y34000
X34625Y33550
X34625Y33100
X33675Y34500
X32575Y34900
X31725Y34550
X32575Y34050
X31725Y35500
X31575Y36550
X30725Y36850
X30375Y37050
X30163Y36500
X30275Y35600
X30375Y35250
X30075Y34550
X27225Y35150
X26780Y34584
X26325Y34600
X25975Y35150
X27225Y36050
X27275Y36750
X27225Y38050
X27525Y38850
X29475Y38900
X30375Y38050
X22375Y39050
X19275Y38950
X18975Y38300
X17375Y36550
X18225Y35750
X18225Y35200
X17275Y34751
X17275Y34350
X16825Y34750
X15975Y36700
X14325Y34000
X14325Y33550
X14325Y33100
X13875Y33100
X13875Y33550
X13875Y34000
X13425Y34000
X13425Y33550
X13425Y33100
X12475Y34500
X11375Y34900
X11375Y34050
X10525Y34550
X10525Y35500
X10375Y36550
X9525Y36850
X9175Y37050
X8963Y36500
X9075Y35600
X9175Y35250
X8875Y34550
X6025Y35150
X5580Y34584
X5125Y34600
X4775Y35150
X6025Y36050
X6075Y36750
X6025Y38050
X6325Y38850
X8275Y38900
X9175Y38050
X16775Y32300
X18075Y31550
X18625Y30350
X21875Y30550
X20825Y34600
X28075Y30000
X29425Y29950
X30075Y29550
X30270Y30250
X27025Y27750
X26625Y28250
X29075Y24550
X29875Y24550
X37975Y32300
X42025Y34600
X40175Y38300
X40475Y38950
X43575Y39050
X10875Y24795
X8675Y24550
X7875Y24550
X5825Y27750
X5425Y28250
X6875Y30000
X8225Y29950
X8875Y29550
X9070Y30250
X9070Y10050
X8875Y9350
X8225Y9750
X6875Y9800
X5425Y8050
X5825Y7550
X29075Y4350
X29875Y4350
X39075Y4350
X39875Y4350
X39825Y3950
X43075Y10350
T02
X36075Y9350
X35075Y9350
X35075Y8350
X36075Y8350
X34075Y8350
X34075Y9350
X14875Y9350
X14875Y8350
X13875Y8350
X13875Y9350
X12875Y9350
X12875Y8350
X12875Y28550
X12875Y29550
X13875Y29550
X13875Y28550
X14875Y28550
X14875Y29550
X34075Y29550
X34075Y28550
X35075Y28550
X36075Y28550
X36075Y29550
X35075Y29550
T03
X34175Y34750
X33430Y35706
X35975Y34750
X37775Y35550
X28825Y37600
X16575Y35550
X14775Y34750
X12975Y34750
X12230Y35706
X7625Y37600
X7625Y17400
X12230Y15506
X12975Y14550
X14775Y14550
X16575Y15350
X28825Y17400
X33430Y15506
X34175Y14550
X35975Y14550
X37775Y15350
T04
X37075Y23550
X36075Y23550
X35075Y23550
X34075Y23550
X33075Y23550
X25575Y25250
X25575Y26250
X25575Y27250
X25575Y28250
X25575Y29250
X25575Y30250
X15875Y23550
X14875Y23550
X13875Y23550
X12875Y23550
X11875Y23550
X4375Y25250
X4375Y26250
X4375Y27250
X4375Y28250
X4375Y29250
X4375Y30250
X4375Y10050
X4375Y9050
X4375Y8050
X4375Y7050
X4375Y6050
X4375Y5050
X11875Y3350
X12875Y3350
X13875Y3350
X14875Y3350
X15875Y3350
X25575Y5050
X25575Y6050
X25575Y7050
X25575Y8050
X25575Y9050
X25575Y10050
X33075Y3350
X34075Y3350
X35075Y3350
X36075Y3350
X37075Y3350
T05
X42575Y6866
X42575Y8834
X38028Y20350
X36059Y20350
X34091Y20350
X32122Y20350
X42575Y27066
X42575Y29034
X38028Y40550
X36059Y40550
X34091Y40550
X32122Y40550
X21375Y29034
X21375Y27066
X16828Y20350
X14859Y20350
X12891Y20350
X10922Y20350
X21375Y8834
X21375Y6866
X16828Y40550
X14859Y40550
X12891Y40550
X10922Y40550
T06
X20575Y36050
X22375Y36050
X41775Y36050
X43575Y36050
X43575Y15850
X41775Y15850
X22375Y15850
X20575Y15850
T07
X4875Y3850
X22875Y3850
X26075Y3850
X44075Y3850
X44075Y21850
X44075Y24050
X26075Y24050
X26075Y21850
X22875Y21850
X22875Y24050
X4875Y24050
X4875Y21850
X4875Y42050
X22875Y42050
X26075Y42050
X44075Y42050
M30
