G75*
%MOIN*%
%OFA0B0*%
%FSLAX25Y25*%
%IPPOS*%
%LPD*%
%AMOC8*
5,1,8,0,0,1.08239X$1,22.5*
%
%ADD10R,0.03937X0.04331*%
%ADD11R,0.07087X0.10630*%
%ADD12R,0.04331X0.03937*%
%ADD13R,0.05787X0.05000*%
%ADD14R,0.11024X0.09449*%
%ADD15R,0.11811X0.05512*%
%ADD16C,0.01181*%
%ADD17R,0.02700X0.02700*%
%ADD18R,0.04724X0.07874*%
%ADD19R,0.02362X0.05315*%
%ADD20C,0.01772*%
%ADD21R,0.05000X0.02200*%
%ADD22R,0.02200X0.05000*%
%ADD23R,0.06000X0.03000*%
%ADD24R,0.03937X0.18110*%
%ADD25R,0.06299X0.13386*%
%ADD26R,0.04724X0.02165*%
D10*
X0108750Y0075154D03*
X0108750Y0081846D03*
X0128750Y0111654D03*
X0128750Y0118346D03*
X0101250Y0140154D03*
X0095750Y0140154D03*
X0095750Y0146846D03*
X0101250Y0146846D03*
X0166250Y0086846D03*
X0166250Y0080154D03*
X0176250Y0080154D03*
X0176250Y0086846D03*
X0173750Y0066846D03*
X0173750Y0060154D03*
X0163750Y0060154D03*
X0163750Y0066846D03*
X0218750Y0110154D03*
X0218750Y0116846D03*
X0183750Y0130154D03*
X0183750Y0136846D03*
X0176250Y0136846D03*
X0176250Y0130154D03*
X0307750Y0140154D03*
X0313250Y0140154D03*
X0313250Y0146846D03*
X0307750Y0146846D03*
X0340750Y0118346D03*
X0340750Y0111654D03*
X0320750Y0081846D03*
X0320750Y0075154D03*
X0375750Y0066846D03*
X0375750Y0060154D03*
X0385750Y0060154D03*
X0385750Y0066846D03*
X0388250Y0080154D03*
X0388250Y0086846D03*
X0378250Y0086846D03*
X0378250Y0080154D03*
X0430750Y0110154D03*
X0430750Y0116846D03*
X0395750Y0130154D03*
X0395750Y0136846D03*
X0388250Y0136846D03*
X0388250Y0130154D03*
X0385750Y0262154D03*
X0385750Y0268846D03*
X0375750Y0268846D03*
X0375750Y0262154D03*
X0378250Y0282154D03*
X0378250Y0288846D03*
X0388250Y0288846D03*
X0388250Y0282154D03*
X0430750Y0312154D03*
X0430750Y0318846D03*
X0395750Y0332154D03*
X0395750Y0338846D03*
X0388250Y0338846D03*
X0388250Y0332154D03*
X0340750Y0320346D03*
X0340750Y0313654D03*
X0313250Y0342154D03*
X0307750Y0342154D03*
X0307750Y0348846D03*
X0313250Y0348846D03*
X0320750Y0283846D03*
X0320750Y0277154D03*
X0218750Y0312154D03*
X0218750Y0318846D03*
X0183750Y0332154D03*
X0183750Y0338846D03*
X0176250Y0338846D03*
X0176250Y0332154D03*
X0128750Y0320346D03*
X0128750Y0313654D03*
X0101250Y0342154D03*
X0095750Y0342154D03*
X0095750Y0348846D03*
X0101250Y0348846D03*
X0166250Y0288846D03*
X0166250Y0282154D03*
X0176250Y0282154D03*
X0176250Y0288846D03*
X0173750Y0268846D03*
X0173750Y0262154D03*
X0163750Y0262154D03*
X0163750Y0268846D03*
X0108750Y0277154D03*
X0108750Y0283846D03*
D11*
X0110089Y0365500D03*
X0127411Y0365500D03*
X0150089Y0365500D03*
X0167411Y0365500D03*
X0322089Y0365500D03*
X0339411Y0365500D03*
X0362089Y0365500D03*
X0379411Y0365500D03*
X0379411Y0163500D03*
X0362089Y0163500D03*
X0339411Y0163500D03*
X0322089Y0163500D03*
X0167411Y0163500D03*
X0150089Y0163500D03*
X0127411Y0163500D03*
X0110089Y0163500D03*
D12*
X0110404Y0153500D03*
X0117096Y0153500D03*
X0117096Y0133500D03*
X0110404Y0133500D03*
X0110404Y0126000D03*
X0117096Y0126000D03*
X0117096Y0118500D03*
X0110404Y0118500D03*
X0110404Y0111000D03*
X0117096Y0111000D03*
X0102096Y0093500D03*
X0095404Y0093500D03*
X0077096Y0103500D03*
X0070404Y0103500D03*
X0115404Y0068500D03*
X0122096Y0068500D03*
X0145404Y0058500D03*
X0152096Y0058500D03*
X0155404Y0113500D03*
X0162096Y0113500D03*
X0162096Y0121000D03*
X0155404Y0121000D03*
X0170904Y0153500D03*
X0177596Y0153500D03*
X0087096Y0148500D03*
X0080404Y0148500D03*
X0080404Y0158500D03*
X0087096Y0158500D03*
X0087096Y0168500D03*
X0080404Y0168500D03*
X0080404Y0178500D03*
X0087096Y0178500D03*
X0145404Y0260500D03*
X0152096Y0260500D03*
X0122096Y0270500D03*
X0115404Y0270500D03*
X0102096Y0295500D03*
X0095404Y0295500D03*
X0077096Y0305500D03*
X0070404Y0305500D03*
X0110404Y0313000D03*
X0117096Y0313000D03*
X0117096Y0320500D03*
X0110404Y0320500D03*
X0110404Y0328000D03*
X0117096Y0328000D03*
X0117096Y0335500D03*
X0110404Y0335500D03*
X0110404Y0355500D03*
X0117096Y0355500D03*
X0087096Y0350500D03*
X0080404Y0350500D03*
X0080404Y0360500D03*
X0087096Y0360500D03*
X0087096Y0370500D03*
X0080404Y0370500D03*
X0080404Y0380500D03*
X0087096Y0380500D03*
X0155404Y0323000D03*
X0162096Y0323000D03*
X0162096Y0315500D03*
X0155404Y0315500D03*
X0170904Y0355500D03*
X0177596Y0355500D03*
X0282404Y0305500D03*
X0289096Y0305500D03*
X0307404Y0295500D03*
X0314096Y0295500D03*
X0322404Y0313000D03*
X0329096Y0313000D03*
X0329096Y0320500D03*
X0322404Y0320500D03*
X0322404Y0328000D03*
X0329096Y0328000D03*
X0329096Y0335500D03*
X0322404Y0335500D03*
X0322404Y0355500D03*
X0329096Y0355500D03*
X0299096Y0350500D03*
X0292404Y0350500D03*
X0292404Y0360500D03*
X0299096Y0360500D03*
X0299096Y0370500D03*
X0292404Y0370500D03*
X0292404Y0380500D03*
X0299096Y0380500D03*
X0367404Y0323000D03*
X0374096Y0323000D03*
X0374096Y0315500D03*
X0367404Y0315500D03*
X0382904Y0355500D03*
X0389596Y0355500D03*
X0334096Y0270500D03*
X0327404Y0270500D03*
X0357404Y0260500D03*
X0364096Y0260500D03*
X0299096Y0178500D03*
X0292404Y0178500D03*
X0292404Y0168500D03*
X0299096Y0168500D03*
X0299096Y0158500D03*
X0292404Y0158500D03*
X0292404Y0148500D03*
X0299096Y0148500D03*
X0322404Y0153500D03*
X0329096Y0153500D03*
X0329096Y0133500D03*
X0322404Y0133500D03*
X0322404Y0126000D03*
X0329096Y0126000D03*
X0329096Y0118500D03*
X0322404Y0118500D03*
X0322404Y0111000D03*
X0329096Y0111000D03*
X0314096Y0093500D03*
X0307404Y0093500D03*
X0289096Y0103500D03*
X0282404Y0103500D03*
X0327404Y0068500D03*
X0334096Y0068500D03*
X0357404Y0058500D03*
X0364096Y0058500D03*
X0367404Y0113500D03*
X0374096Y0113500D03*
X0374096Y0121000D03*
X0367404Y0121000D03*
X0382904Y0153500D03*
X0389596Y0153500D03*
D13*
X0440750Y0121965D03*
X0440750Y0105035D03*
X0228750Y0105035D03*
X0228750Y0121965D03*
X0228750Y0307035D03*
X0228750Y0323965D03*
X0440750Y0323965D03*
X0440750Y0307035D03*
D14*
X0435750Y0338059D03*
X0411734Y0338059D03*
X0411734Y0382941D03*
X0435750Y0382941D03*
X0223750Y0382941D03*
X0199734Y0382941D03*
X0199734Y0338059D03*
X0223750Y0338059D03*
X0223750Y0180941D03*
X0199734Y0180941D03*
X0199734Y0136059D03*
X0223750Y0136059D03*
X0411734Y0136059D03*
X0435750Y0136059D03*
X0435750Y0180941D03*
X0411734Y0180941D03*
D15*
X0420199Y0113500D03*
X0401301Y0113500D03*
X0208199Y0113500D03*
X0189301Y0113500D03*
X0189301Y0315500D03*
X0208199Y0315500D03*
X0401301Y0315500D03*
X0420199Y0315500D03*
D16*
X0359096Y0329594D02*
X0359096Y0329594D01*
X0361616Y0329594D01*
X0361616Y0329594D01*
X0359096Y0329594D01*
X0359096Y0331563D02*
X0359096Y0331563D01*
X0361616Y0331563D01*
X0361616Y0331563D01*
X0359096Y0331563D01*
X0359096Y0333531D02*
X0359096Y0333531D01*
X0361616Y0333531D01*
X0361616Y0333531D01*
X0359096Y0333531D01*
X0359096Y0335500D02*
X0359096Y0335500D01*
X0361616Y0335500D01*
X0361616Y0335500D01*
X0359096Y0335500D01*
X0359096Y0337469D02*
X0359096Y0337469D01*
X0361616Y0337469D01*
X0361616Y0337469D01*
X0359096Y0337469D01*
X0359096Y0339437D02*
X0359096Y0339437D01*
X0361616Y0339437D01*
X0361616Y0339437D01*
X0359096Y0339437D01*
X0359096Y0341406D02*
X0359096Y0341406D01*
X0361616Y0341406D01*
X0361616Y0341406D01*
X0359096Y0341406D01*
X0356656Y0343846D02*
X0356656Y0343846D01*
X0356656Y0346366D01*
X0356656Y0346366D01*
X0356656Y0343846D01*
X0356656Y0344968D02*
X0356656Y0344968D01*
X0356656Y0346090D02*
X0356656Y0346090D01*
X0354687Y0343846D02*
X0354687Y0343846D01*
X0354687Y0346366D01*
X0354687Y0346366D01*
X0354687Y0343846D01*
X0354687Y0344968D02*
X0354687Y0344968D01*
X0354687Y0346090D02*
X0354687Y0346090D01*
X0352719Y0343846D02*
X0352719Y0343846D01*
X0352719Y0346366D01*
X0352719Y0346366D01*
X0352719Y0343846D01*
X0352719Y0344968D02*
X0352719Y0344968D01*
X0352719Y0346090D02*
X0352719Y0346090D01*
X0350750Y0343846D02*
X0350750Y0343846D01*
X0350750Y0346366D01*
X0350750Y0346366D01*
X0350750Y0343846D01*
X0350750Y0344968D02*
X0350750Y0344968D01*
X0350750Y0346090D02*
X0350750Y0346090D01*
X0348781Y0343846D02*
X0348781Y0343846D01*
X0348781Y0346366D01*
X0348781Y0346366D01*
X0348781Y0343846D01*
X0348781Y0344968D02*
X0348781Y0344968D01*
X0348781Y0346090D02*
X0348781Y0346090D01*
X0346813Y0343846D02*
X0346813Y0343846D01*
X0346813Y0346366D01*
X0346813Y0346366D01*
X0346813Y0343846D01*
X0346813Y0344968D02*
X0346813Y0344968D01*
X0346813Y0346090D02*
X0346813Y0346090D01*
X0344844Y0343846D02*
X0344844Y0343846D01*
X0344844Y0346366D01*
X0344844Y0346366D01*
X0344844Y0343846D01*
X0344844Y0344968D02*
X0344844Y0344968D01*
X0344844Y0346090D02*
X0344844Y0346090D01*
X0342404Y0341406D02*
X0342404Y0341406D01*
X0339884Y0341406D01*
X0339884Y0341406D01*
X0342404Y0341406D01*
X0342404Y0339437D02*
X0342404Y0339437D01*
X0339884Y0339437D01*
X0339884Y0339437D01*
X0342404Y0339437D01*
X0342404Y0337469D02*
X0342404Y0337469D01*
X0339884Y0337469D01*
X0339884Y0337469D01*
X0342404Y0337469D01*
X0342404Y0335500D02*
X0342404Y0335500D01*
X0339884Y0335500D01*
X0339884Y0335500D01*
X0342404Y0335500D01*
X0342404Y0333531D02*
X0342404Y0333531D01*
X0339884Y0333531D01*
X0339884Y0333531D01*
X0342404Y0333531D01*
X0342404Y0331563D02*
X0342404Y0331563D01*
X0339884Y0331563D01*
X0339884Y0331563D01*
X0342404Y0331563D01*
X0342404Y0329594D02*
X0342404Y0329594D01*
X0339884Y0329594D01*
X0339884Y0329594D01*
X0342404Y0329594D01*
X0344844Y0327154D02*
X0344844Y0327154D01*
X0344844Y0324634D01*
X0344844Y0324634D01*
X0344844Y0327154D01*
X0344844Y0325756D02*
X0344844Y0325756D01*
X0344844Y0326878D02*
X0344844Y0326878D01*
X0346813Y0327154D02*
X0346813Y0327154D01*
X0346813Y0324634D01*
X0346813Y0324634D01*
X0346813Y0327154D01*
X0346813Y0325756D02*
X0346813Y0325756D01*
X0346813Y0326878D02*
X0346813Y0326878D01*
X0348781Y0327154D02*
X0348781Y0327154D01*
X0348781Y0324634D01*
X0348781Y0324634D01*
X0348781Y0327154D01*
X0348781Y0325756D02*
X0348781Y0325756D01*
X0348781Y0326878D02*
X0348781Y0326878D01*
X0350750Y0327154D02*
X0350750Y0327154D01*
X0350750Y0324634D01*
X0350750Y0324634D01*
X0350750Y0327154D01*
X0350750Y0325756D02*
X0350750Y0325756D01*
X0350750Y0326878D02*
X0350750Y0326878D01*
X0352719Y0327154D02*
X0352719Y0327154D01*
X0352719Y0324634D01*
X0352719Y0324634D01*
X0352719Y0327154D01*
X0352719Y0325756D02*
X0352719Y0325756D01*
X0352719Y0326878D02*
X0352719Y0326878D01*
X0354687Y0327154D02*
X0354687Y0327154D01*
X0354687Y0324634D01*
X0354687Y0324634D01*
X0354687Y0327154D01*
X0354687Y0325756D02*
X0354687Y0325756D01*
X0354687Y0326878D02*
X0354687Y0326878D01*
X0356656Y0327154D02*
X0356656Y0327154D01*
X0356656Y0324634D01*
X0356656Y0324634D01*
X0356656Y0327154D01*
X0356656Y0325756D02*
X0356656Y0325756D01*
X0356656Y0326878D02*
X0356656Y0326878D01*
X0285581Y0349122D02*
X0285581Y0351878D01*
X0285581Y0349122D02*
X0282825Y0349122D01*
X0282825Y0351878D01*
X0285581Y0351878D01*
X0285581Y0350244D02*
X0282825Y0350244D01*
X0282825Y0351366D02*
X0285581Y0351366D01*
X0278675Y0351878D02*
X0278675Y0349122D01*
X0275919Y0349122D01*
X0275919Y0351878D01*
X0278675Y0351878D01*
X0278675Y0350244D02*
X0275919Y0350244D01*
X0275919Y0351366D02*
X0278675Y0351366D01*
X0278675Y0359122D02*
X0278675Y0361878D01*
X0278675Y0359122D02*
X0275919Y0359122D01*
X0275919Y0361878D01*
X0278675Y0361878D01*
X0278675Y0360244D02*
X0275919Y0360244D01*
X0275919Y0361366D02*
X0278675Y0361366D01*
X0285581Y0361878D02*
X0285581Y0359122D01*
X0282825Y0359122D01*
X0282825Y0361878D01*
X0285581Y0361878D01*
X0285581Y0360244D02*
X0282825Y0360244D01*
X0282825Y0361366D02*
X0285581Y0361366D01*
X0285581Y0369122D02*
X0285581Y0371878D01*
X0285581Y0369122D02*
X0282825Y0369122D01*
X0282825Y0371878D01*
X0285581Y0371878D01*
X0285581Y0370244D02*
X0282825Y0370244D01*
X0282825Y0371366D02*
X0285581Y0371366D01*
X0278675Y0371878D02*
X0278675Y0369122D01*
X0275919Y0369122D01*
X0275919Y0371878D01*
X0278675Y0371878D01*
X0278675Y0370244D02*
X0275919Y0370244D01*
X0275919Y0371366D02*
X0278675Y0371366D01*
X0278675Y0379122D02*
X0278675Y0381878D01*
X0278675Y0379122D02*
X0275919Y0379122D01*
X0275919Y0381878D01*
X0278675Y0381878D01*
X0278675Y0380244D02*
X0275919Y0380244D01*
X0275919Y0381366D02*
X0278675Y0381366D01*
X0285581Y0381878D02*
X0285581Y0379122D01*
X0282825Y0379122D01*
X0282825Y0381878D01*
X0285581Y0381878D01*
X0285581Y0380244D02*
X0282825Y0380244D01*
X0282825Y0381366D02*
X0285581Y0381366D01*
X0147096Y0341406D02*
X0147096Y0341406D01*
X0149616Y0341406D01*
X0149616Y0341406D01*
X0147096Y0341406D01*
X0147096Y0339437D02*
X0147096Y0339437D01*
X0149616Y0339437D01*
X0149616Y0339437D01*
X0147096Y0339437D01*
X0147096Y0337469D02*
X0147096Y0337469D01*
X0149616Y0337469D01*
X0149616Y0337469D01*
X0147096Y0337469D01*
X0147096Y0335500D02*
X0147096Y0335500D01*
X0149616Y0335500D01*
X0149616Y0335500D01*
X0147096Y0335500D01*
X0147096Y0333531D02*
X0147096Y0333531D01*
X0149616Y0333531D01*
X0149616Y0333531D01*
X0147096Y0333531D01*
X0147096Y0331563D02*
X0147096Y0331563D01*
X0149616Y0331563D01*
X0149616Y0331563D01*
X0147096Y0331563D01*
X0147096Y0329594D02*
X0147096Y0329594D01*
X0149616Y0329594D01*
X0149616Y0329594D01*
X0147096Y0329594D01*
X0144656Y0327154D02*
X0144656Y0327154D01*
X0144656Y0324634D01*
X0144656Y0324634D01*
X0144656Y0327154D01*
X0144656Y0325756D02*
X0144656Y0325756D01*
X0144656Y0326878D02*
X0144656Y0326878D01*
X0142687Y0327154D02*
X0142687Y0327154D01*
X0142687Y0324634D01*
X0142687Y0324634D01*
X0142687Y0327154D01*
X0142687Y0325756D02*
X0142687Y0325756D01*
X0142687Y0326878D02*
X0142687Y0326878D01*
X0140719Y0327154D02*
X0140719Y0327154D01*
X0140719Y0324634D01*
X0140719Y0324634D01*
X0140719Y0327154D01*
X0140719Y0325756D02*
X0140719Y0325756D01*
X0140719Y0326878D02*
X0140719Y0326878D01*
X0138750Y0327154D02*
X0138750Y0327154D01*
X0138750Y0324634D01*
X0138750Y0324634D01*
X0138750Y0327154D01*
X0138750Y0325756D02*
X0138750Y0325756D01*
X0138750Y0326878D02*
X0138750Y0326878D01*
X0136781Y0327154D02*
X0136781Y0327154D01*
X0136781Y0324634D01*
X0136781Y0324634D01*
X0136781Y0327154D01*
X0136781Y0325756D02*
X0136781Y0325756D01*
X0136781Y0326878D02*
X0136781Y0326878D01*
X0134813Y0327154D02*
X0134813Y0327154D01*
X0134813Y0324634D01*
X0134813Y0324634D01*
X0134813Y0327154D01*
X0134813Y0325756D02*
X0134813Y0325756D01*
X0134813Y0326878D02*
X0134813Y0326878D01*
X0132844Y0327154D02*
X0132844Y0327154D01*
X0132844Y0324634D01*
X0132844Y0324634D01*
X0132844Y0327154D01*
X0132844Y0325756D02*
X0132844Y0325756D01*
X0132844Y0326878D02*
X0132844Y0326878D01*
X0130404Y0329594D02*
X0130404Y0329594D01*
X0127884Y0329594D01*
X0127884Y0329594D01*
X0130404Y0329594D01*
X0130404Y0331563D02*
X0130404Y0331563D01*
X0127884Y0331563D01*
X0127884Y0331563D01*
X0130404Y0331563D01*
X0130404Y0333531D02*
X0130404Y0333531D01*
X0127884Y0333531D01*
X0127884Y0333531D01*
X0130404Y0333531D01*
X0130404Y0335500D02*
X0130404Y0335500D01*
X0127884Y0335500D01*
X0127884Y0335500D01*
X0130404Y0335500D01*
X0130404Y0337469D02*
X0130404Y0337469D01*
X0127884Y0337469D01*
X0127884Y0337469D01*
X0130404Y0337469D01*
X0130404Y0339437D02*
X0130404Y0339437D01*
X0127884Y0339437D01*
X0127884Y0339437D01*
X0130404Y0339437D01*
X0130404Y0341406D02*
X0130404Y0341406D01*
X0127884Y0341406D01*
X0127884Y0341406D01*
X0130404Y0341406D01*
X0132844Y0343846D02*
X0132844Y0343846D01*
X0132844Y0346366D01*
X0132844Y0346366D01*
X0132844Y0343846D01*
X0132844Y0344968D02*
X0132844Y0344968D01*
X0132844Y0346090D02*
X0132844Y0346090D01*
X0134813Y0343846D02*
X0134813Y0343846D01*
X0134813Y0346366D01*
X0134813Y0346366D01*
X0134813Y0343846D01*
X0134813Y0344968D02*
X0134813Y0344968D01*
X0134813Y0346090D02*
X0134813Y0346090D01*
X0136781Y0343846D02*
X0136781Y0343846D01*
X0136781Y0346366D01*
X0136781Y0346366D01*
X0136781Y0343846D01*
X0136781Y0344968D02*
X0136781Y0344968D01*
X0136781Y0346090D02*
X0136781Y0346090D01*
X0138750Y0343846D02*
X0138750Y0343846D01*
X0138750Y0346366D01*
X0138750Y0346366D01*
X0138750Y0343846D01*
X0138750Y0344968D02*
X0138750Y0344968D01*
X0138750Y0346090D02*
X0138750Y0346090D01*
X0140719Y0343846D02*
X0140719Y0343846D01*
X0140719Y0346366D01*
X0140719Y0346366D01*
X0140719Y0343846D01*
X0140719Y0344968D02*
X0140719Y0344968D01*
X0140719Y0346090D02*
X0140719Y0346090D01*
X0142687Y0343846D02*
X0142687Y0343846D01*
X0142687Y0346366D01*
X0142687Y0346366D01*
X0142687Y0343846D01*
X0142687Y0344968D02*
X0142687Y0344968D01*
X0142687Y0346090D02*
X0142687Y0346090D01*
X0144656Y0343846D02*
X0144656Y0343846D01*
X0144656Y0346366D01*
X0144656Y0346366D01*
X0144656Y0343846D01*
X0144656Y0344968D02*
X0144656Y0344968D01*
X0144656Y0346090D02*
X0144656Y0346090D01*
X0073581Y0349122D02*
X0073581Y0351878D01*
X0073581Y0349122D02*
X0070825Y0349122D01*
X0070825Y0351878D01*
X0073581Y0351878D01*
X0073581Y0350244D02*
X0070825Y0350244D01*
X0070825Y0351366D02*
X0073581Y0351366D01*
X0066675Y0351878D02*
X0066675Y0349122D01*
X0063919Y0349122D01*
X0063919Y0351878D01*
X0066675Y0351878D01*
X0066675Y0350244D02*
X0063919Y0350244D01*
X0063919Y0351366D02*
X0066675Y0351366D01*
X0066675Y0359122D02*
X0066675Y0361878D01*
X0066675Y0359122D02*
X0063919Y0359122D01*
X0063919Y0361878D01*
X0066675Y0361878D01*
X0066675Y0360244D02*
X0063919Y0360244D01*
X0063919Y0361366D02*
X0066675Y0361366D01*
X0073581Y0361878D02*
X0073581Y0359122D01*
X0070825Y0359122D01*
X0070825Y0361878D01*
X0073581Y0361878D01*
X0073581Y0360244D02*
X0070825Y0360244D01*
X0070825Y0361366D02*
X0073581Y0361366D01*
X0073581Y0369122D02*
X0073581Y0371878D01*
X0073581Y0369122D02*
X0070825Y0369122D01*
X0070825Y0371878D01*
X0073581Y0371878D01*
X0073581Y0370244D02*
X0070825Y0370244D01*
X0070825Y0371366D02*
X0073581Y0371366D01*
X0066675Y0371878D02*
X0066675Y0369122D01*
X0063919Y0369122D01*
X0063919Y0371878D01*
X0066675Y0371878D01*
X0066675Y0370244D02*
X0063919Y0370244D01*
X0063919Y0371366D02*
X0066675Y0371366D01*
X0066675Y0379122D02*
X0066675Y0381878D01*
X0066675Y0379122D02*
X0063919Y0379122D01*
X0063919Y0381878D01*
X0066675Y0381878D01*
X0066675Y0380244D02*
X0063919Y0380244D01*
X0063919Y0381366D02*
X0066675Y0381366D01*
X0073581Y0381878D02*
X0073581Y0379122D01*
X0070825Y0379122D01*
X0070825Y0381878D01*
X0073581Y0381878D01*
X0073581Y0380244D02*
X0070825Y0380244D01*
X0070825Y0381366D02*
X0073581Y0381366D01*
X0073581Y0179878D02*
X0073581Y0177122D01*
X0070825Y0177122D01*
X0070825Y0179878D01*
X0073581Y0179878D01*
X0073581Y0178244D02*
X0070825Y0178244D01*
X0070825Y0179366D02*
X0073581Y0179366D01*
X0066675Y0179878D02*
X0066675Y0177122D01*
X0063919Y0177122D01*
X0063919Y0179878D01*
X0066675Y0179878D01*
X0066675Y0178244D02*
X0063919Y0178244D01*
X0063919Y0179366D02*
X0066675Y0179366D01*
X0066675Y0169878D02*
X0066675Y0167122D01*
X0063919Y0167122D01*
X0063919Y0169878D01*
X0066675Y0169878D01*
X0066675Y0168244D02*
X0063919Y0168244D01*
X0063919Y0169366D02*
X0066675Y0169366D01*
X0073581Y0169878D02*
X0073581Y0167122D01*
X0070825Y0167122D01*
X0070825Y0169878D01*
X0073581Y0169878D01*
X0073581Y0168244D02*
X0070825Y0168244D01*
X0070825Y0169366D02*
X0073581Y0169366D01*
X0073581Y0159878D02*
X0073581Y0157122D01*
X0070825Y0157122D01*
X0070825Y0159878D01*
X0073581Y0159878D01*
X0073581Y0158244D02*
X0070825Y0158244D01*
X0070825Y0159366D02*
X0073581Y0159366D01*
X0066675Y0159878D02*
X0066675Y0157122D01*
X0063919Y0157122D01*
X0063919Y0159878D01*
X0066675Y0159878D01*
X0066675Y0158244D02*
X0063919Y0158244D01*
X0063919Y0159366D02*
X0066675Y0159366D01*
X0066675Y0149878D02*
X0066675Y0147122D01*
X0063919Y0147122D01*
X0063919Y0149878D01*
X0066675Y0149878D01*
X0066675Y0148244D02*
X0063919Y0148244D01*
X0063919Y0149366D02*
X0066675Y0149366D01*
X0073581Y0149878D02*
X0073581Y0147122D01*
X0070825Y0147122D01*
X0070825Y0149878D01*
X0073581Y0149878D01*
X0073581Y0148244D02*
X0070825Y0148244D01*
X0070825Y0149366D02*
X0073581Y0149366D01*
X0130404Y0139406D02*
X0130404Y0139406D01*
X0127884Y0139406D01*
X0127884Y0139406D01*
X0130404Y0139406D01*
X0130404Y0137437D02*
X0130404Y0137437D01*
X0127884Y0137437D01*
X0127884Y0137437D01*
X0130404Y0137437D01*
X0130404Y0135469D02*
X0130404Y0135469D01*
X0127884Y0135469D01*
X0127884Y0135469D01*
X0130404Y0135469D01*
X0130404Y0133500D02*
X0130404Y0133500D01*
X0127884Y0133500D01*
X0127884Y0133500D01*
X0130404Y0133500D01*
X0130404Y0131531D02*
X0130404Y0131531D01*
X0127884Y0131531D01*
X0127884Y0131531D01*
X0130404Y0131531D01*
X0130404Y0129563D02*
X0130404Y0129563D01*
X0127884Y0129563D01*
X0127884Y0129563D01*
X0130404Y0129563D01*
X0130404Y0127594D02*
X0130404Y0127594D01*
X0127884Y0127594D01*
X0127884Y0127594D01*
X0130404Y0127594D01*
X0132844Y0125154D02*
X0132844Y0125154D01*
X0132844Y0122634D01*
X0132844Y0122634D01*
X0132844Y0125154D01*
X0132844Y0123756D02*
X0132844Y0123756D01*
X0132844Y0124878D02*
X0132844Y0124878D01*
X0134813Y0125154D02*
X0134813Y0125154D01*
X0134813Y0122634D01*
X0134813Y0122634D01*
X0134813Y0125154D01*
X0134813Y0123756D02*
X0134813Y0123756D01*
X0134813Y0124878D02*
X0134813Y0124878D01*
X0136781Y0125154D02*
X0136781Y0125154D01*
X0136781Y0122634D01*
X0136781Y0122634D01*
X0136781Y0125154D01*
X0136781Y0123756D02*
X0136781Y0123756D01*
X0136781Y0124878D02*
X0136781Y0124878D01*
X0138750Y0125154D02*
X0138750Y0125154D01*
X0138750Y0122634D01*
X0138750Y0122634D01*
X0138750Y0125154D01*
X0138750Y0123756D02*
X0138750Y0123756D01*
X0138750Y0124878D02*
X0138750Y0124878D01*
X0140719Y0125154D02*
X0140719Y0125154D01*
X0140719Y0122634D01*
X0140719Y0122634D01*
X0140719Y0125154D01*
X0140719Y0123756D02*
X0140719Y0123756D01*
X0140719Y0124878D02*
X0140719Y0124878D01*
X0142687Y0125154D02*
X0142687Y0125154D01*
X0142687Y0122634D01*
X0142687Y0122634D01*
X0142687Y0125154D01*
X0142687Y0123756D02*
X0142687Y0123756D01*
X0142687Y0124878D02*
X0142687Y0124878D01*
X0144656Y0125154D02*
X0144656Y0125154D01*
X0144656Y0122634D01*
X0144656Y0122634D01*
X0144656Y0125154D01*
X0144656Y0123756D02*
X0144656Y0123756D01*
X0144656Y0124878D02*
X0144656Y0124878D01*
X0147096Y0127594D02*
X0147096Y0127594D01*
X0149616Y0127594D01*
X0149616Y0127594D01*
X0147096Y0127594D01*
X0147096Y0129563D02*
X0147096Y0129563D01*
X0149616Y0129563D01*
X0149616Y0129563D01*
X0147096Y0129563D01*
X0147096Y0131531D02*
X0147096Y0131531D01*
X0149616Y0131531D01*
X0149616Y0131531D01*
X0147096Y0131531D01*
X0147096Y0133500D02*
X0147096Y0133500D01*
X0149616Y0133500D01*
X0149616Y0133500D01*
X0147096Y0133500D01*
X0147096Y0135469D02*
X0147096Y0135469D01*
X0149616Y0135469D01*
X0149616Y0135469D01*
X0147096Y0135469D01*
X0147096Y0137437D02*
X0147096Y0137437D01*
X0149616Y0137437D01*
X0149616Y0137437D01*
X0147096Y0137437D01*
X0147096Y0139406D02*
X0147096Y0139406D01*
X0149616Y0139406D01*
X0149616Y0139406D01*
X0147096Y0139406D01*
X0144656Y0141846D02*
X0144656Y0141846D01*
X0144656Y0144366D01*
X0144656Y0144366D01*
X0144656Y0141846D01*
X0144656Y0142968D02*
X0144656Y0142968D01*
X0144656Y0144090D02*
X0144656Y0144090D01*
X0142687Y0141846D02*
X0142687Y0141846D01*
X0142687Y0144366D01*
X0142687Y0144366D01*
X0142687Y0141846D01*
X0142687Y0142968D02*
X0142687Y0142968D01*
X0142687Y0144090D02*
X0142687Y0144090D01*
X0140719Y0141846D02*
X0140719Y0141846D01*
X0140719Y0144366D01*
X0140719Y0144366D01*
X0140719Y0141846D01*
X0140719Y0142968D02*
X0140719Y0142968D01*
X0140719Y0144090D02*
X0140719Y0144090D01*
X0138750Y0141846D02*
X0138750Y0141846D01*
X0138750Y0144366D01*
X0138750Y0144366D01*
X0138750Y0141846D01*
X0138750Y0142968D02*
X0138750Y0142968D01*
X0138750Y0144090D02*
X0138750Y0144090D01*
X0136781Y0141846D02*
X0136781Y0141846D01*
X0136781Y0144366D01*
X0136781Y0144366D01*
X0136781Y0141846D01*
X0136781Y0142968D02*
X0136781Y0142968D01*
X0136781Y0144090D02*
X0136781Y0144090D01*
X0134813Y0141846D02*
X0134813Y0141846D01*
X0134813Y0144366D01*
X0134813Y0144366D01*
X0134813Y0141846D01*
X0134813Y0142968D02*
X0134813Y0142968D01*
X0134813Y0144090D02*
X0134813Y0144090D01*
X0132844Y0141846D02*
X0132844Y0141846D01*
X0132844Y0144366D01*
X0132844Y0144366D01*
X0132844Y0141846D01*
X0132844Y0142968D02*
X0132844Y0142968D01*
X0132844Y0144090D02*
X0132844Y0144090D01*
X0278675Y0147122D02*
X0278675Y0149878D01*
X0278675Y0147122D02*
X0275919Y0147122D01*
X0275919Y0149878D01*
X0278675Y0149878D01*
X0278675Y0148244D02*
X0275919Y0148244D01*
X0275919Y0149366D02*
X0278675Y0149366D01*
X0285581Y0149878D02*
X0285581Y0147122D01*
X0282825Y0147122D01*
X0282825Y0149878D01*
X0285581Y0149878D01*
X0285581Y0148244D02*
X0282825Y0148244D01*
X0282825Y0149366D02*
X0285581Y0149366D01*
X0285581Y0157122D02*
X0285581Y0159878D01*
X0285581Y0157122D02*
X0282825Y0157122D01*
X0282825Y0159878D01*
X0285581Y0159878D01*
X0285581Y0158244D02*
X0282825Y0158244D01*
X0282825Y0159366D02*
X0285581Y0159366D01*
X0278675Y0159878D02*
X0278675Y0157122D01*
X0275919Y0157122D01*
X0275919Y0159878D01*
X0278675Y0159878D01*
X0278675Y0158244D02*
X0275919Y0158244D01*
X0275919Y0159366D02*
X0278675Y0159366D01*
X0278675Y0167122D02*
X0278675Y0169878D01*
X0278675Y0167122D02*
X0275919Y0167122D01*
X0275919Y0169878D01*
X0278675Y0169878D01*
X0278675Y0168244D02*
X0275919Y0168244D01*
X0275919Y0169366D02*
X0278675Y0169366D01*
X0285581Y0169878D02*
X0285581Y0167122D01*
X0282825Y0167122D01*
X0282825Y0169878D01*
X0285581Y0169878D01*
X0285581Y0168244D02*
X0282825Y0168244D01*
X0282825Y0169366D02*
X0285581Y0169366D01*
X0285581Y0177122D02*
X0285581Y0179878D01*
X0285581Y0177122D02*
X0282825Y0177122D01*
X0282825Y0179878D01*
X0285581Y0179878D01*
X0285581Y0178244D02*
X0282825Y0178244D01*
X0282825Y0179366D02*
X0285581Y0179366D01*
X0278675Y0179878D02*
X0278675Y0177122D01*
X0275919Y0177122D01*
X0275919Y0179878D01*
X0278675Y0179878D01*
X0278675Y0178244D02*
X0275919Y0178244D01*
X0275919Y0179366D02*
X0278675Y0179366D01*
X0342404Y0139406D02*
X0342404Y0139406D01*
X0339884Y0139406D01*
X0339884Y0139406D01*
X0342404Y0139406D01*
X0342404Y0137437D02*
X0342404Y0137437D01*
X0339884Y0137437D01*
X0339884Y0137437D01*
X0342404Y0137437D01*
X0342404Y0135469D02*
X0342404Y0135469D01*
X0339884Y0135469D01*
X0339884Y0135469D01*
X0342404Y0135469D01*
X0342404Y0133500D02*
X0342404Y0133500D01*
X0339884Y0133500D01*
X0339884Y0133500D01*
X0342404Y0133500D01*
X0342404Y0131531D02*
X0342404Y0131531D01*
X0339884Y0131531D01*
X0339884Y0131531D01*
X0342404Y0131531D01*
X0342404Y0129563D02*
X0342404Y0129563D01*
X0339884Y0129563D01*
X0339884Y0129563D01*
X0342404Y0129563D01*
X0342404Y0127594D02*
X0342404Y0127594D01*
X0339884Y0127594D01*
X0339884Y0127594D01*
X0342404Y0127594D01*
X0344844Y0125154D02*
X0344844Y0125154D01*
X0344844Y0122634D01*
X0344844Y0122634D01*
X0344844Y0125154D01*
X0344844Y0123756D02*
X0344844Y0123756D01*
X0344844Y0124878D02*
X0344844Y0124878D01*
X0346813Y0125154D02*
X0346813Y0125154D01*
X0346813Y0122634D01*
X0346813Y0122634D01*
X0346813Y0125154D01*
X0346813Y0123756D02*
X0346813Y0123756D01*
X0346813Y0124878D02*
X0346813Y0124878D01*
X0348781Y0125154D02*
X0348781Y0125154D01*
X0348781Y0122634D01*
X0348781Y0122634D01*
X0348781Y0125154D01*
X0348781Y0123756D02*
X0348781Y0123756D01*
X0348781Y0124878D02*
X0348781Y0124878D01*
X0350750Y0125154D02*
X0350750Y0125154D01*
X0350750Y0122634D01*
X0350750Y0122634D01*
X0350750Y0125154D01*
X0350750Y0123756D02*
X0350750Y0123756D01*
X0350750Y0124878D02*
X0350750Y0124878D01*
X0352719Y0125154D02*
X0352719Y0125154D01*
X0352719Y0122634D01*
X0352719Y0122634D01*
X0352719Y0125154D01*
X0352719Y0123756D02*
X0352719Y0123756D01*
X0352719Y0124878D02*
X0352719Y0124878D01*
X0354687Y0125154D02*
X0354687Y0125154D01*
X0354687Y0122634D01*
X0354687Y0122634D01*
X0354687Y0125154D01*
X0354687Y0123756D02*
X0354687Y0123756D01*
X0354687Y0124878D02*
X0354687Y0124878D01*
X0356656Y0125154D02*
X0356656Y0125154D01*
X0356656Y0122634D01*
X0356656Y0122634D01*
X0356656Y0125154D01*
X0356656Y0123756D02*
X0356656Y0123756D01*
X0356656Y0124878D02*
X0356656Y0124878D01*
X0359096Y0127594D02*
X0359096Y0127594D01*
X0361616Y0127594D01*
X0361616Y0127594D01*
X0359096Y0127594D01*
X0359096Y0129563D02*
X0359096Y0129563D01*
X0361616Y0129563D01*
X0361616Y0129563D01*
X0359096Y0129563D01*
X0359096Y0131531D02*
X0359096Y0131531D01*
X0361616Y0131531D01*
X0361616Y0131531D01*
X0359096Y0131531D01*
X0359096Y0133500D02*
X0359096Y0133500D01*
X0361616Y0133500D01*
X0361616Y0133500D01*
X0359096Y0133500D01*
X0359096Y0135469D02*
X0359096Y0135469D01*
X0361616Y0135469D01*
X0361616Y0135469D01*
X0359096Y0135469D01*
X0359096Y0137437D02*
X0359096Y0137437D01*
X0361616Y0137437D01*
X0361616Y0137437D01*
X0359096Y0137437D01*
X0359096Y0139406D02*
X0359096Y0139406D01*
X0361616Y0139406D01*
X0361616Y0139406D01*
X0359096Y0139406D01*
X0356656Y0141846D02*
X0356656Y0141846D01*
X0356656Y0144366D01*
X0356656Y0144366D01*
X0356656Y0141846D01*
X0356656Y0142968D02*
X0356656Y0142968D01*
X0356656Y0144090D02*
X0356656Y0144090D01*
X0354687Y0141846D02*
X0354687Y0141846D01*
X0354687Y0144366D01*
X0354687Y0144366D01*
X0354687Y0141846D01*
X0354687Y0142968D02*
X0354687Y0142968D01*
X0354687Y0144090D02*
X0354687Y0144090D01*
X0352719Y0141846D02*
X0352719Y0141846D01*
X0352719Y0144366D01*
X0352719Y0144366D01*
X0352719Y0141846D01*
X0352719Y0142968D02*
X0352719Y0142968D01*
X0352719Y0144090D02*
X0352719Y0144090D01*
X0350750Y0141846D02*
X0350750Y0141846D01*
X0350750Y0144366D01*
X0350750Y0144366D01*
X0350750Y0141846D01*
X0350750Y0142968D02*
X0350750Y0142968D01*
X0350750Y0144090D02*
X0350750Y0144090D01*
X0348781Y0141846D02*
X0348781Y0141846D01*
X0348781Y0144366D01*
X0348781Y0144366D01*
X0348781Y0141846D01*
X0348781Y0142968D02*
X0348781Y0142968D01*
X0348781Y0144090D02*
X0348781Y0144090D01*
X0346813Y0141846D02*
X0346813Y0141846D01*
X0346813Y0144366D01*
X0346813Y0144366D01*
X0346813Y0141846D01*
X0346813Y0142968D02*
X0346813Y0142968D01*
X0346813Y0144090D02*
X0346813Y0144090D01*
X0344844Y0141846D02*
X0344844Y0141846D01*
X0344844Y0144366D01*
X0344844Y0144366D01*
X0344844Y0141846D01*
X0344844Y0142968D02*
X0344844Y0142968D01*
X0344844Y0144090D02*
X0344844Y0144090D01*
D17*
X0350750Y0133500D03*
X0138750Y0133500D03*
X0138750Y0335500D03*
X0350750Y0335500D03*
D18*
X0077726Y0034031D03*
X0099774Y0034031D03*
X0177726Y0034031D03*
X0199774Y0034031D03*
X0289726Y0034031D03*
X0311774Y0034031D03*
X0389726Y0034031D03*
X0411774Y0034031D03*
X0411774Y0236031D03*
X0389726Y0236031D03*
X0311774Y0236031D03*
X0289726Y0236031D03*
X0199774Y0236031D03*
X0177726Y0236031D03*
X0099774Y0236031D03*
X0077726Y0236031D03*
D19*
X0082844Y0250500D03*
X0086781Y0250500D03*
X0090719Y0250500D03*
X0094656Y0250500D03*
X0182844Y0250500D03*
X0186781Y0250500D03*
X0190719Y0250500D03*
X0194656Y0250500D03*
X0294844Y0250500D03*
X0298781Y0250500D03*
X0302719Y0250500D03*
X0306656Y0250500D03*
X0394844Y0250500D03*
X0398781Y0250500D03*
X0402719Y0250500D03*
X0406656Y0250500D03*
X0406656Y0048500D03*
X0402719Y0048500D03*
X0398781Y0048500D03*
X0394844Y0048500D03*
X0306656Y0048500D03*
X0302719Y0048500D03*
X0298781Y0048500D03*
X0294844Y0048500D03*
X0194656Y0048500D03*
X0190719Y0048500D03*
X0186781Y0048500D03*
X0182844Y0048500D03*
X0094656Y0048500D03*
X0090719Y0048500D03*
X0086781Y0048500D03*
X0082844Y0048500D03*
D20*
X0175886Y0093776D02*
X0181614Y0093776D01*
X0181614Y0098500D02*
X0175886Y0098500D01*
X0175886Y0103224D02*
X0181614Y0103224D01*
X0387886Y0103224D02*
X0393614Y0103224D01*
X0393614Y0098500D02*
X0387886Y0098500D01*
X0387886Y0093776D02*
X0393614Y0093776D01*
X0393614Y0295776D02*
X0387886Y0295776D01*
X0387886Y0300500D02*
X0393614Y0300500D01*
X0393614Y0305224D02*
X0387886Y0305224D01*
X0181614Y0305224D02*
X0175886Y0305224D01*
X0175886Y0300500D02*
X0181614Y0300500D01*
X0181614Y0295776D02*
X0175886Y0295776D01*
D21*
X0155650Y0295224D03*
X0155650Y0292075D03*
X0155650Y0288925D03*
X0155650Y0285776D03*
X0155650Y0282626D03*
X0155650Y0279476D03*
X0155650Y0298374D03*
X0155650Y0301524D03*
X0121850Y0301524D03*
X0121850Y0298374D03*
X0121850Y0295224D03*
X0121850Y0292075D03*
X0121850Y0288925D03*
X0121850Y0285776D03*
X0121850Y0282626D03*
X0121850Y0279476D03*
X0333850Y0279476D03*
X0333850Y0282626D03*
X0333850Y0285776D03*
X0333850Y0288925D03*
X0333850Y0292075D03*
X0333850Y0295224D03*
X0333850Y0298374D03*
X0333850Y0301524D03*
X0367650Y0301524D03*
X0367650Y0298374D03*
X0367650Y0295224D03*
X0367650Y0292075D03*
X0367650Y0288925D03*
X0367650Y0285776D03*
X0367650Y0282626D03*
X0367650Y0279476D03*
X0367650Y0099524D03*
X0367650Y0096374D03*
X0367650Y0093224D03*
X0367650Y0090075D03*
X0367650Y0086925D03*
X0367650Y0083776D03*
X0367650Y0080626D03*
X0367650Y0077476D03*
X0333850Y0077476D03*
X0333850Y0080626D03*
X0333850Y0083776D03*
X0333850Y0086925D03*
X0333850Y0090075D03*
X0333850Y0093224D03*
X0333850Y0096374D03*
X0333850Y0099524D03*
X0155650Y0099524D03*
X0155650Y0096374D03*
X0155650Y0093224D03*
X0155650Y0090075D03*
X0155650Y0086925D03*
X0155650Y0083776D03*
X0155650Y0080626D03*
X0155650Y0077476D03*
X0121850Y0077476D03*
X0121850Y0080626D03*
X0121850Y0083776D03*
X0121850Y0086925D03*
X0121850Y0090075D03*
X0121850Y0093224D03*
X0121850Y0096374D03*
X0121850Y0099524D03*
D22*
X0127726Y0105400D03*
X0130876Y0105400D03*
X0134026Y0105400D03*
X0137175Y0105400D03*
X0140325Y0105400D03*
X0143474Y0105400D03*
X0146624Y0105400D03*
X0149774Y0105400D03*
X0149774Y0071600D03*
X0146624Y0071600D03*
X0143474Y0071600D03*
X0140325Y0071600D03*
X0137175Y0071600D03*
X0134026Y0071600D03*
X0130876Y0071600D03*
X0127726Y0071600D03*
X0339726Y0071600D03*
X0342876Y0071600D03*
X0346026Y0071600D03*
X0349175Y0071600D03*
X0352325Y0071600D03*
X0355474Y0071600D03*
X0358624Y0071600D03*
X0361774Y0071600D03*
X0361774Y0105400D03*
X0358624Y0105400D03*
X0355474Y0105400D03*
X0352325Y0105400D03*
X0349175Y0105400D03*
X0346026Y0105400D03*
X0342876Y0105400D03*
X0339726Y0105400D03*
X0339726Y0273600D03*
X0342876Y0273600D03*
X0346026Y0273600D03*
X0349175Y0273600D03*
X0352325Y0273600D03*
X0355474Y0273600D03*
X0358624Y0273600D03*
X0361774Y0273600D03*
X0361774Y0307400D03*
X0358624Y0307400D03*
X0355474Y0307400D03*
X0352325Y0307400D03*
X0349175Y0307400D03*
X0346026Y0307400D03*
X0342876Y0307400D03*
X0339726Y0307400D03*
X0149774Y0307400D03*
X0146624Y0307400D03*
X0143474Y0307400D03*
X0140325Y0307400D03*
X0137175Y0307400D03*
X0134026Y0307400D03*
X0130876Y0307400D03*
X0127726Y0307400D03*
X0127726Y0273600D03*
X0130876Y0273600D03*
X0134026Y0273600D03*
X0137175Y0273600D03*
X0140325Y0273600D03*
X0143474Y0273600D03*
X0146624Y0273600D03*
X0149774Y0273600D03*
D23*
X0099750Y0273000D03*
X0099750Y0288000D03*
X0077750Y0288000D03*
X0077750Y0273000D03*
X0289750Y0273000D03*
X0289750Y0288000D03*
X0311750Y0288000D03*
X0311750Y0273000D03*
X0311750Y0086000D03*
X0311750Y0071000D03*
X0289750Y0071000D03*
X0289750Y0086000D03*
X0099750Y0086000D03*
X0099750Y0071000D03*
X0077750Y0071000D03*
X0077750Y0086000D03*
D24*
X0074813Y0198933D03*
X0082687Y0198933D03*
X0194813Y0198933D03*
X0202687Y0198933D03*
X0286813Y0198933D03*
X0294687Y0198933D03*
X0406813Y0198933D03*
X0414687Y0198933D03*
X0414687Y0400933D03*
X0406813Y0400933D03*
X0294687Y0400933D03*
X0286813Y0400933D03*
X0202687Y0400933D03*
X0194813Y0400933D03*
X0082687Y0400933D03*
X0074813Y0400933D03*
D25*
X0065364Y0421406D03*
X0092136Y0421406D03*
X0185364Y0421406D03*
X0212136Y0421406D03*
X0277364Y0421406D03*
X0304136Y0421406D03*
X0397364Y0421406D03*
X0424136Y0421406D03*
X0424136Y0219406D03*
X0397364Y0219406D03*
X0304136Y0219406D03*
X0277364Y0219406D03*
X0212136Y0219406D03*
X0185364Y0219406D03*
X0092136Y0219406D03*
X0065364Y0219406D03*
D26*
X0108631Y0147240D03*
X0108631Y0139760D03*
X0118869Y0139760D03*
X0118869Y0143500D03*
X0118869Y0147240D03*
X0320631Y0147240D03*
X0320631Y0139760D03*
X0330869Y0139760D03*
X0330869Y0143500D03*
X0330869Y0147240D03*
X0330869Y0341760D03*
X0330869Y0345500D03*
X0330869Y0349240D03*
X0320631Y0349240D03*
X0320631Y0341760D03*
X0118869Y0341760D03*
X0118869Y0345500D03*
X0118869Y0349240D03*
X0108631Y0349240D03*
X0108631Y0341760D03*
M02*
